<svg xmlns="http://www.w3.org/2000/svg" viewBox="0 0 237.85 109.36"><defs><style>.cls-1{fill:blue;}</style></defs><title>Asset 2</title><g id="Layer_2" data-name="Layer 2"><g id="Layer_1-2" data-name="Layer 1"><path class="cls-1" d="M90,30.27H83.53V41.19h6.18a8,8,0,0,0,2.82-5.94A6,6,0,0,0,90,30.27Z"/><path class="cls-1" d="M0,0V109.36H237.85V0ZM31.09,48.15,30,25.23h-.3L25.33,42.15H20.41L16.09,25.23h-.3L14.65,48.15H6.79l2.7-42H17l2.58,9.66L22.75,29H23l3.18-13.14,2.58-9.66h7.5l2.7,42ZM69.91,30.93c0,6.42-.12,11.94-6.54,17.22H50.05c-6.36-5.16-6.54-10.8-6.54-17.22V6.15h8.22V33.93c0,4.26,1,5.64,2.46,7.26h5c1.44-1.62,2.46-3,2.46-7.26V6.15h8.22ZM93.43,48.15H75.37v-42h17.1c3.3,1.2,7.5,4.68,7.5,10.32,0,5-1.8,7.86-4.44,9.48v.24a10.33,10.33,0,0,1,5.52,9.6C101.05,42.33,96.43,46.23,93.43,48.15Zm20.22,0h-8.22v-42h8.22Zm27.3,0H118V41.31l14.16-28H118V6.15h22.92v7l-14.22,28H141Zm25.92,0h-23V41.31l14.16-28H143.89V6.15h22.92v7l-14.22,28h14.28Z"/><path class="cls-1" d="M92.11,18.33a5.88,5.88,0,0,0-2.46-5H83.53V23.49h5.94A5.8,5.8,0,0,0,92.11,18.33Z"/></g></g></svg>