<svg xmlns="http://www.w3.org/2000/svg" xmlns:xlink="http://www.w3.org/1999/xlink" viewBox="0 0 165.74 82.53"><defs><style>.cls-1{fill:url(#linear-gradient);}.cls-2{fill:#fff;}</style><linearGradient id="linear-gradient" y1="41.27" x2="165.74" y2="41.27" gradientUnits="userSpaceOnUse"><stop offset="0" stop-color="#ea5824"/><stop offset="1" stop-color="#fcee21"/></linearGradient></defs><title>Asset 4</title><g id="Layer_2" data-name="Layer 2"><g id="Layer_1-2" data-name="Layer 1"><path class="cls-1" d="M0,0V82.53H165.74V0ZM16.15,10.92c44,2,83.15-.7,131.56-.95a3.2,3.2,0,0,1,3.42,3.35,4,4,0,0,1-4.1,3.35C97.3,16.68,61,20.74,16.48,18.12a4,4,0,0,1-3.61-3.77A3.18,3.18,0,0,1,16.15,10.92ZM124.24,49.86a3.72,3.72,0,0,1,2.51,1A3.8,3.8,0,0,1,128,53.23a2.93,2.93,0,0,1-.61,2.42,2.7,2.7,0,0,1-2.22,1c-4.54-.05-9,0-13.43,0a3.39,3.39,0,0,1-2.4-.92,3.88,3.88,0,0,1-1.25-2.37,4.33,4.33,0,0,1,.41-2.49c2.11-2.6,4.19-5.16,6.36-7.69-1.81,0-3.6.08-5.38.14a3.32,3.32,0,0,1-1.34-.24,4.34,4.34,0,0,1-1.15-.69,4.18,4.18,0,0,1-.87-1,3.74,3.74,0,0,1-.46-1.16,3.44,3.44,0,0,1,0-1.28,2.67,2.67,0,0,1,1.36-1.89,2.72,2.72,0,0,1,1.25-.31c4.52-.16,9.12-.29,13.85-.35a3.42,3.42,0,0,1,1.4.26,4,4,0,0,1,1.18.73,4.23,4.23,0,0,1,.87,1.1,4,4,0,0,1,.43,1.31,2.54,2.54,0,0,1-.56,2.18c-2.32,2.61-4.51,5.23-6.67,7.91C120.6,49.86,122.41,49.86,124.24,49.86ZM88.86,31.13a3.54,3.54,0,0,1-3.6-3,3,3,0,0,1,2.86-3.37c17.92-.79,36.61-1.65,58.28-1.46a3.66,3.66,0,0,1,3.87,3.36,3.5,3.5,0,0,1-3.83,3.22C124.9,29.41,106.54,30.25,88.86,31.13Zm14.24,9.19c.42,2.16.86,4.32,1.28,6.51s.79,4.19,1.13,6.35a3.3,3.3,0,0,1-.07,1.37,3.37,3.37,0,0,1-.58,1.15,3,3,0,0,1-1,.81,2.85,2.85,0,0,1-1.27.33,2.73,2.73,0,0,1-1.19-.26,4,4,0,0,1-1.11-.75,4.69,4.69,0,0,1-.87-1.1A3.87,3.87,0,0,1,99,53.38c-.33-2.13-.71-4.23-1.11-6.3s-.88-4.33-1.32-6.47a2.84,2.84,0,0,1,0-1.3,3,3,0,0,1,.51-1.09,2.5,2.5,0,0,1,.87-.78,2.39,2.39,0,0,1,1.1-.33,3.33,3.33,0,0,1,1.36.22A4.43,4.43,0,0,1,102.57,39,3.51,3.51,0,0,1,103.1,40.32ZM83.87,37.87a9.62,9.62,0,0,1,3.75.58,12.27,12.27,0,0,1,6.17,5,10.9,10.9,0,0,1,1.54,3.82A8.51,8.51,0,0,1,95.26,51a8.51,8.51,0,0,1-7.91,6.42,9.7,9.7,0,0,1-3.92-.62,10.78,10.78,0,0,1-3.32-2,12.14,12.14,0,0,1-2.47-3,11.07,11.07,0,0,1-1.35-3.62c-1.18-6.49-2.8-12.83-3.77-19.57a2.89,2.89,0,0,1,.57-2.32,2.75,2.75,0,0,1,2.14-1,3.31,3.31,0,0,1,2.4.82,3.51,3.51,0,0,1,1.17,2.23c.48,3.56,1.16,7,1.88,10.45A6.65,6.65,0,0,1,83.87,37.87ZM62,50.89a3.27,3.27,0,0,0,2.43.89,2.71,2.71,0,0,0,2.19-1.09,3.1,3.1,0,0,0,.52-2.42c-.35-2.06-.75-4.11-1.16-6.17a2.81,2.81,0,0,1,0-1.26A2.89,2.89,0,0,1,67.47,39a2.82,2.82,0,0,1,1.24-.33,3.26,3.26,0,0,1,2.41.88,4.14,4.14,0,0,1,1.33,2.29c.43,2.05.85,4.1,1.22,6.16l0,.23a8.46,8.46,0,0,1-.14,3.72,8.32,8.32,0,0,1-1.69,3.19,9.05,9.05,0,0,1-2.95,2.28,9.37,9.37,0,0,1-3.87,1,9.63,9.63,0,0,1-3.88-.64,10.87,10.87,0,0,1-3.32-2,11.72,11.72,0,0,1-2.48-3.09,10.51,10.51,0,0,1-1.29-3.8c-.29-2.07-.64-4.14-1-6.22a3.08,3.08,0,0,1,.46-2.38,2.42,2.42,0,0,1,2.08-1.07,3.65,3.65,0,0,1,1.38.24,4.47,4.47,0,0,1,2.18,1.75,3.33,3.33,0,0,1,.52,1.25c.39,2.07.77,4.12,1.09,6.19A3.94,3.94,0,0,0,62,50.89ZM17,25.1c16.1,1,30.8,1,45.3.62a3.72,3.72,0,0,1,3.59,3.21,2.75,2.75,0,0,1-2.59,3.35c-14.43.5-29.22.61-45.74-.34a4.12,4.12,0,0,1-3.85-3.64A3,3,0,0,1,17,25.1ZM14.87,49.16c-.08-2.27-.18-4.54-.31-6.83a3.26,3.26,0,0,1,.9-2.51A3.16,3.16,0,0,1,18,38.88a4,4,0,0,1,1.6.4,6,6,0,0,1,1.17.79c.73-.24,1.48-.46,2.23-.65a8.83,8.83,0,0,1,2.46-.24,11.78,11.78,0,0,1,3.94.83A15.83,15.83,0,0,1,33,42a9.29,9.29,0,0,1,2.85-1.9,9,9,0,0,1,3.54-.7,11.67,11.67,0,0,1,4.23.78,14.08,14.08,0,0,1,3.65,2.07,12.21,12.21,0,0,1,2.72,3,9,9,0,0,1,1.36,3.64c0,.1,0,.21,0,.31q.41,3.09.62,6.21a3,3,0,0,1-.23,1.33,3.16,3.16,0,0,1-.76,1.09,4.31,4.31,0,0,1-1.14.77,3.73,3.73,0,0,1-1.42.32A3.21,3.21,0,0,1,46,58a3.45,3.45,0,0,1-1-2.36c-.1-2.09-.28-4.17-.52-6.24A3.51,3.51,0,0,0,43.09,47a4.15,4.15,0,0,0-2.73-1,2.78,2.78,0,0,0-1.2.28,3.57,3.57,0,0,0-1,.74,3.42,3.42,0,0,0-.66,1.09,2.9,2.9,0,0,0-.17,1.35c.19,2.09.34,4.18.41,6.28a3.22,3.22,0,0,1-.95,2.42,3.45,3.45,0,0,1-2.57,1A4,4,0,0,1,32.73,59a4.25,4.25,0,0,1-1.22-.73,3.42,3.42,0,0,1-.84-1.08,2.92,2.92,0,0,1-.34-1.33q-.07-3.18-.32-6.35A3.67,3.67,0,0,0,28.81,47a3.86,3.86,0,0,0-2.67-1.07,3.32,3.32,0,0,0-2.59,1,3.19,3.19,0,0,0-.88,2.47q.18,3.21.22,6.42a2.76,2.76,0,0,1-.32,1.36,3.52,3.52,0,0,1-.88,1.08A4.29,4.29,0,0,1,20.4,59a4.47,4.47,0,0,1-1.55.27,3.82,3.82,0,0,1-2.76-1.08A3.38,3.38,0,0,1,15,55.68Q15,52.43,14.87,49.16ZM149.51,71.61c-44-2-83.15.7-131.57,1a3.21,3.21,0,0,1-3.43-3.35,4,4,0,0,1,4.1-3.35c49.75,0,86.1-4.06,130.57-1.45a4,4,0,0,1,3.6,3.76A3.19,3.19,0,0,1,149.51,71.61Zm-1.28-21a4.1,4.1,0,0,1,2.66,1.13,3.7,3.7,0,0,1,1.2,2.51,2.92,2.92,0,0,1-.85,2.4,3.1,3.1,0,0,1-2.46.81c-4.88-.3-9.62-.51-14.28-.65a3.73,3.73,0,0,1-2.5-1,4,4,0,0,1-1.26-2.46,4.13,4.13,0,0,1,.52-2.52c2.34-2.55,4.75-5,7.31-7.54l-5.84-.12a3.73,3.73,0,0,1-1.43-.3,4.6,4.6,0,0,1-1.19-.75,4,4,0,0,1-.86-1.07,3.22,3.22,0,0,1-.42-1.19,3.38,3.38,0,0,1,.08-1.31,2.72,2.72,0,0,1,.6-1.11,3.06,3.06,0,0,1,1-.76,3.35,3.35,0,0,1,1.39-.27c4.92,0,10,.11,15.27.29a4,4,0,0,1,1.54.34,4.62,4.62,0,0,1,1.25.83,3.9,3.9,0,0,1,.86,1.19,3.45,3.45,0,0,1,.36,1.37,2.61,2.61,0,0,1-.84,2.22c-2.85,2.55-5.51,5.1-8,7.7Z"/><path class="cls-2" d="M18.85,59.26A4.47,4.47,0,0,0,20.4,59a4.29,4.29,0,0,0,1.29-.75,3.52,3.52,0,0,0,.88-1.08,2.76,2.76,0,0,0,.32-1.36q0-3.21-.22-6.42a3.19,3.19,0,0,1,.88-2.47,3.32,3.32,0,0,1,2.59-1A3.86,3.86,0,0,1,28.81,47,3.67,3.67,0,0,1,30,49.48q.24,3.17.32,6.35a2.92,2.92,0,0,0,.34,1.33,3.42,3.42,0,0,0,.84,1.08,4.25,4.25,0,0,0,1.22.73,4,4,0,0,0,1.51.26,3.45,3.45,0,0,0,2.57-1,3.22,3.22,0,0,0,.95-2.42c-.07-2.1-.22-4.19-.41-6.28a2.9,2.9,0,0,1,.17-1.35A3.42,3.42,0,0,1,38.18,47a3.57,3.57,0,0,1,1-.74,2.78,2.78,0,0,1,1.2-.28,4.15,4.15,0,0,1,2.73,1,3.51,3.51,0,0,1,1.37,2.4c.24,2.07.42,4.15.52,6.24A3.45,3.45,0,0,0,46,58a3.21,3.21,0,0,0,2.48.95,3.73,3.73,0,0,0,1.42-.32,4.31,4.31,0,0,0,1.14-.77,3.16,3.16,0,0,0,.76-1.09,3,3,0,0,0,.23-1.33q-.21-3.12-.62-6.21c0-.1,0-.21,0-.31A9,9,0,0,0,50,45.27a12.21,12.21,0,0,0-2.72-3,14.08,14.08,0,0,0-3.65-2.07,11.67,11.67,0,0,0-4.23-.78,9,9,0,0,0-3.54.7A9.29,9.29,0,0,0,33,42a15.83,15.83,0,0,0-3.61-2,11.78,11.78,0,0,0-3.94-.83,8.83,8.83,0,0,0-2.46.24c-.75.19-1.5.41-2.23.65a6,6,0,0,0-1.17-.79,4,4,0,0,0-1.6-.4,3.16,3.16,0,0,0-2.57.94,3.26,3.26,0,0,0-.9,2.51c.13,2.29.23,4.56.31,6.83s.13,4.35.14,6.52a3.38,3.38,0,0,0,1.08,2.5A3.82,3.82,0,0,0,18.85,59.26Z"/><path class="cls-2" d="M59.18,41.11A4.47,4.47,0,0,0,57,39.36a3.65,3.65,0,0,0-1.38-.24,2.42,2.42,0,0,0-2.08,1.07,3.08,3.08,0,0,0-.46,2.38c.37,2.08.72,4.15,1,6.22a10.7,10.7,0,0,0,1.29,3.8,11.72,11.72,0,0,0,2.48,3.09,10.87,10.87,0,0,0,3.32,2,9.63,9.63,0,0,0,3.88.64,9.37,9.37,0,0,0,3.87-1,9.05,9.05,0,0,0,2.95-2.28,8.32,8.32,0,0,0,1.69-3.19,8.46,8.46,0,0,0,.14-3.72l0-.23c-.37-2.06-.79-4.11-1.22-6.16a4.14,4.14,0,0,0-1.33-2.29,3.26,3.26,0,0,0-2.41-.88,2.82,2.82,0,0,0-1.24.33A2.89,2.89,0,0,0,66,40.84a2.81,2.81,0,0,0,0,1.26c.41,2.06.81,4.11,1.16,6.17a3.1,3.1,0,0,1-.52,2.42,2.69,2.69,0,0,1-2.19,1.09A3.27,3.27,0,0,1,62,50.89a3.89,3.89,0,0,1-1.25-2.34c-.32-2.07-.7-4.12-1.09-6.19A3.33,3.33,0,0,0,59.18,41.11Z"/><path class="cls-2" d="M77.63,26.1a3.31,3.31,0,0,0-2.4-.82,2.75,2.75,0,0,0-2.14,1,2.89,2.89,0,0,0-.57,2.32c1,6.74,2.59,13.08,3.77,19.57a11.07,11.07,0,0,0,1.35,3.62,12.14,12.14,0,0,0,2.47,3,10.78,10.78,0,0,0,3.32,2,9.7,9.7,0,0,0,3.92.62,8.3,8.3,0,0,0,3.56-.94,8.42,8.42,0,0,0,4.42-9.21,10.9,10.9,0,0,0-1.54-3.82,12.27,12.27,0,0,0-6.17-5,9.62,9.62,0,0,0-3.75-.58,6.65,6.65,0,0,0-3.19.91c-.72-3.43-1.4-6.89-1.88-10.45A3.51,3.51,0,0,0,77.63,26.1Zm4.94,20.43a3.23,3.23,0,0,1,.49-1.14,2.49,2.49,0,0,1,.9-.8,2.87,2.87,0,0,1,1.25-.34,3.19,3.19,0,0,1,2.38.91,4.25,4.25,0,0,1,1.35,2.37,2.82,2.82,0,0,1,0,1.12,2.64,2.64,0,0,1-1.29,1.78,2.49,2.49,0,0,1-1.17.33,3.18,3.18,0,0,1-1.36-.21,4.21,4.21,0,0,1-1.18-.65A4,4,0,0,1,83,49a2.94,2.94,0,0,1-.48-1.1A3.08,3.08,0,0,1,82.57,46.53Z"/><path class="cls-2" d="M100.4,37.33A3.33,3.33,0,0,0,99,37.11a2.39,2.39,0,0,0-1.1.33,2.5,2.5,0,0,0-.87.78,3,3,0,0,0-.51,1.09,2.84,2.84,0,0,0,0,1.3c.44,2.14.89,4.29,1.32,6.47s.78,4.17,1.11,6.3a3.87,3.87,0,0,0,.47,1.35,4.69,4.69,0,0,0,.87,1.1,4,4,0,0,0,1.11.75,2.73,2.73,0,0,0,1.19.26,2.85,2.85,0,0,0,1.27-.33,3,3,0,0,0,1-.81,3.37,3.37,0,0,0,.58-1.15,3.3,3.3,0,0,0,.07-1.37c-.34-2.16-.73-4.27-1.13-6.35s-.86-4.35-1.28-6.51a3.51,3.51,0,0,0-.53-1.28,4.64,4.64,0,0,0-.95-1A4.43,4.43,0,0,0,100.4,37.33Z"/><path class="cls-2" d="M126,39.79a4,4,0,0,0-.43-1.31,4.23,4.23,0,0,0-.87-1.1,4,4,0,0,0-1.18-.73,3.42,3.42,0,0,0-1.4-.26c-4.73.06-9.33.19-13.85.35a2.72,2.72,0,0,0-1.25.31,2.67,2.67,0,0,0-1.36,1.89,3.44,3.44,0,0,0,0,1.28,3.74,3.74,0,0,0,.46,1.16,4.18,4.18,0,0,0,.87,1,4.34,4.34,0,0,0,1.15.69,3.32,3.32,0,0,0,1.34.24c1.78-.06,3.57-.1,5.38-.14-2.17,2.53-4.25,5.09-6.36,7.69a4.33,4.33,0,0,0-.41,2.49,3.88,3.88,0,0,0,1.25,2.37,3.39,3.39,0,0,0,2.4.92c4.43-.07,8.89-.09,13.43,0a2.7,2.7,0,0,0,2.22-1,2.93,2.93,0,0,0,.61-2.42,3.8,3.8,0,0,0-1.28-2.41,3.72,3.72,0,0,0-2.51-1c-1.83,0-3.64,0-5.44,0,2.16-2.68,4.35-5.3,6.67-7.91A2.54,2.54,0,0,0,126,39.79Z"/><path class="cls-2" d="M151.19,40.36a3.45,3.45,0,0,0-.36-1.37A3.9,3.9,0,0,0,150,37.8a4.47,4.47,0,0,0-1.25-.83,4,4,0,0,0-1.54-.34c-5.27-.18-10.35-.27-15.27-.29a3.35,3.35,0,0,0-1.39.27,3.06,3.06,0,0,0-1,.76,2.72,2.72,0,0,0-.6,1.11,3.38,3.38,0,0,0-.08,1.31,3.22,3.22,0,0,0,.42,1.19,4,4,0,0,0,.86,1.07,4.6,4.6,0,0,0,1.19.75,3.73,3.73,0,0,0,1.43.3l5.84.12c-2.56,2.49-5,5-7.31,7.54a4.13,4.13,0,0,0-.52,2.52A4,4,0,0,0,132,55.74a3.73,3.73,0,0,0,2.5,1c4.66.14,9.4.35,14.28.65a3.1,3.1,0,0,0,2.46-.81,2.92,2.92,0,0,0,.85-2.4,3.7,3.7,0,0,0-1.2-2.51,4.1,4.1,0,0,0-2.66-1.13l-5.92-.3c2.53-2.6,5.19-5.15,8-7.7A2.61,2.61,0,0,0,151.19,40.36Z"/><path class="cls-2" d="M150.27,26.63a3.66,3.66,0,0,0-3.87-3.36c-21.67-.19-40.36.67-58.28,1.46a3,3,0,0,0-2.86,3.37,3.54,3.54,0,0,0,3.6,3c17.68-.88,36-1.72,57.58-1.28A3.5,3.5,0,0,0,150.27,26.63Z"/><path class="cls-2" d="M17.51,31.94c16.52.95,31.31.84,45.74.34a2.75,2.75,0,0,0,2.59-3.35,3.72,3.72,0,0,0-3.59-3.21c-14.5.39-29.2.38-45.3-.62a3,3,0,0,0-3.29,3.2A4.12,4.12,0,0,0,17.51,31.94Z"/><path class="cls-2" d="M16.48,18.12C61,20.74,97.3,16.68,147,16.67a4,4,0,0,0,4.1-3.35A3.2,3.2,0,0,0,147.71,10c-48.41.25-87.57,2.91-131.56.95a3.18,3.18,0,0,0-3.28,3.43A4,4,0,0,0,16.48,18.12Z"/><path class="cls-2" d="M149.18,64.41c-44.47-2.61-80.82,1.45-130.57,1.45a4,4,0,0,0-4.1,3.35,3.21,3.21,0,0,0,3.43,3.35c48.42-.25,87.58-2.9,131.57-1a3.19,3.19,0,0,0,3.27-3.44A4,4,0,0,0,149.18,64.41Z"/></g></g></svg>