<svg xmlns="http://www.w3.org/2000/svg" viewBox="0 0 237.85 109.36"><defs><style>.cls-1{fill:#001200;}.cls-2{fill:#fff;}</style></defs><title>Asset 1</title><g id="Layer_2" data-name="Layer 2"><g id="Layer_1-2" data-name="Layer 1"><path class="cls-1" d="M90,30.27H83.53V41.19h6.18a8,8,0,0,0,2.82-5.94A6,6,0,0,0,90,30.27Z"/><path class="cls-1" d="M0,0V109.36H237.85V0ZM31.09,48.15,30,25.23h-.3L25.33,42.15H20.41L16.09,25.23h-.3L14.65,48.15H6.79l2.7-42H17l2.58,9.66L22.75,29H23l3.18-13.14,2.58-9.66h7.5l2.7,42ZM69.91,30.93c0,6.42-.12,11.94-6.54,17.22H50.05c-6.36-5.16-6.54-10.8-6.54-17.22V6.15h8.22V33.93c0,4.26,1,5.64,2.46,7.26h5c1.44-1.62,2.46-3,2.46-7.26V6.15h8.22ZM93.43,48.15H75.37v-42h17.1c3.3,1.2,7.5,4.68,7.5,10.32,0,5-1.8,7.86-4.44,9.48v.24a10.33,10.33,0,0,1,5.52,9.6C101.05,42.33,96.43,46.23,93.43,48.15Zm20.22,0h-8.22v-42h8.22Zm27.3,0H118V41.31l14.16-28H118V6.15h22.92v7l-14.22,28H141Zm25.92,0h-23V41.31l14.16-28H143.89V6.15h22.92v7l-14.22,28h14.28Z"/><path class="cls-1" d="M92.11,18.33a5.88,5.88,0,0,0-2.46-5H83.53V23.49h5.94A5.8,5.8,0,0,0,92.11,18.33Z"/><polygon class="cls-2" points="28.75 6.15 26.17 15.81 22.99 28.95 22.75 28.95 19.57 15.81 16.99 6.15 9.49 6.15 6.79 48.15 14.65 48.15 15.79 25.23 16.09 25.23 20.41 42.15 25.33 42.15 29.65 25.23 29.95 25.23 31.09 48.15 38.95 48.15 36.25 6.15 28.75 6.15"/><path class="cls-2" d="M61.69,33.93c0,4.26-1,5.64-2.46,7.26h-5c-1.44-1.62-2.46-3-2.46-7.26V6.15H43.51V30.93c0,6.42.18,12.06,6.54,17.22H63.37c6.42-5.28,6.54-10.8,6.54-17.22V6.15H61.69Z"/><path class="cls-2" d="M95.53,26.19V26c2.64-1.62,4.44-4.5,4.44-9.48,0-5.64-4.2-9.12-7.5-10.32H75.37v42H93.43c3-1.92,7.62-5.82,7.62-12.36A10.33,10.33,0,0,0,95.53,26.19Zm-12-12.84h6.12a5.88,5.88,0,0,1,2.46,5,5.8,5.8,0,0,1-2.64,5.16H83.53Zm6.18,27.84H83.53V30.27H90a6,6,0,0,1,2.52,5A8,8,0,0,1,89.71,41.19Z"/><rect class="cls-2" x="105.43" y="6.15" width="8.22" height="42"/><polygon class="cls-2" points="140.89 13.17 140.89 6.15 117.97 6.15 117.97 13.35 132.13 13.35 117.97 41.31 117.97 48.15 140.95 48.15 140.95 41.19 126.67 41.19 140.89 13.17"/><polygon class="cls-2" points="166.81 13.17 166.81 6.15 143.89 6.15 143.89 13.35 158.05 13.35 143.89 41.31 143.89 48.15 166.87 48.15 166.87 41.19 152.59 41.19 166.81 13.17"/></g></g></svg>