<svg xmlns="http://www.w3.org/2000/svg" viewBox="0 0 175.17 51.97"><defs><style>.cls-1{fill:none;}.cls-2{fill:#73dfff;}.cls-3{fill:#7acffb;}.cls-4{fill:#80bff7;}.cls-5{fill:#87aff2;}.cls-6{fill:#8e9fee;}.cls-7{fill:#948fea;}.cls-8{fill:#9b7fe6;}.cls-9{fill:#a270e2;}.cls-10{fill:#a860dd;}.cls-11{fill:#af50d9;}.cls-12{fill:#b540d5;}.cls-13{fill:#bc30d1;}.cls-14{fill:#c320cc;}.cls-15{fill:#c910c8;}.cls-16{fill:#d000c4;}.cls-17{fill:#fff;}</style></defs><title>Asset 5</title><g id="Layer_2" data-name="Layer 2"><g id="Layer_1-2" data-name="Layer 1"><path class="cls-1" d="M115.65,38.72h1.7a3.5,3.5,0,0,1,1.69.42V31.27l-3.39,3.41Z"/><polygon class="cls-1" points="107.13 33.11 107.13 31.55 103.75 31.55 103.75 36.39 107.13 33.11"/><path class="cls-1" d="M93.08,17.6a2.79,2.79,0,0,1-1.24-.3v7.38a2.79,2.79,0,0,1,1.24-.3,3.38,3.38,0,0,1,1.42.3,4.16,4.16,0,0,1,.73.44V16.86a4.16,4.16,0,0,1-.73.44A3.38,3.38,0,0,1,93.08,17.6Z"/><path class="cls-1" d="M139.46,38.72h1.9a3.61,3.61,0,0,1,1.49.32V31.48l-3.39,3.4Z"/><polygon class="cls-1" points="130.94 33.3 130.94 31.55 127.55 31.55 127.55 36.59 130.94 33.3"/><path class="cls-2" d="M5.33,44.52a3.76,3.76,0,0,1-1-2.57V28.16a3.88,3.88,0,0,1,1-2.63,3.07,3.07,0,0,1,2.43-1.1,3.52,3.52,0,0,1,.75.08V0H0V52H8.51V45.51a3.66,3.66,0,0,1-.75.09A3.08,3.08,0,0,1,5.33,44.52Z"/><path class="cls-3" d="M14.81,24.43a9.57,9.57,0,0,1,3.73.76,13.38,13.38,0,0,1,1.88,1V0H11.9V25c.18-.06.35-.13.53-.18A8,8,0,0,1,14.81,24.43Z"/><path class="cls-3" d="M18.5,43.37A3.38,3.38,0,0,1,18.2,42V35.2a3.87,3.87,0,0,0-.95-2.61,3.12,3.12,0,0,0-2.44-1.08,3.14,3.14,0,0,0-2.48,1.08,3.77,3.77,0,0,0-.43.58V52h8.52V45.29a3.76,3.76,0,0,1-1.14-.77A4,4,0,0,1,18.5,43.37Z"/><path class="cls-4" d="M32.29,35.2a3.7,3.7,0,0,0-3.69-3.69,2.66,2.66,0,0,0-1.23.3,4.08,4.08,0,0,0-1.07.78,4.14,4.14,0,0,0-.76,1.17,3.51,3.51,0,0,0-.3,1.44V42a3.75,3.75,0,0,1-.95,2.57,3.29,3.29,0,0,1-.48.44v7h8.51V42.38c0-.14,0-.28,0-.43Z"/><path class="cls-4" d="M28.6,24.43a10.41,10.41,0,0,1,3.72.67V0H23.81V25.76a11.74,11.74,0,0,1,1.12-.57A9.07,9.07,0,0,1,28.6,24.43Z"/><path class="cls-5" d="M42.17,34.82V28a3.79,3.79,0,0,1,.93-2.56,3,3,0,0,1,1.13-.83V0H35.71V27.1c.17.15.34.29.5.45a10.26,10.26,0,0,1,2.31,3.33,9.62,9.62,0,0,1,.85,4V42a3.38,3.38,0,0,1-.3,1.42,3.55,3.55,0,0,1-.8,1.15,4.27,4.27,0,0,1-1.17.78,3.39,3.39,0,0,1-1.39.29V52h8.52V41.14A11.48,11.48,0,0,1,43,39,10.38,10.38,0,0,1,42.17,34.82Z"/><path class="cls-6" d="M48.6,44.75a8.26,8.26,0,0,1-1-.51V52h8.51V45a10.26,10.26,0,0,1-3.52.62A9.59,9.59,0,0,1,48.6,44.75Z"/><path class="cls-6" d="M48.92,26.66A3.37,3.37,0,0,1,49.21,28v6.79a3.79,3.79,0,0,0,1,2.61,3.1,3.1,0,0,0,2.44,1.08,3.16,3.16,0,0,0,2.48-1.08,3.79,3.79,0,0,0,1-2.61V28a3.55,3.55,0,0,1,.08-.73V0H47.62V25.07a3.89,3.89,0,0,1,.49.42A4,4,0,0,1,48.92,26.66Z"/><path class="cls-7" d="M65.89,35.2V13.82A3.19,3.19,0,0,1,68,10.68V0H59.52V24.41a1.46,1.46,0,0,1,.22,0,3,3,0,0,1,2.41,1.09A3.75,3.75,0,0,1,63.09,28v7a10.25,10.25,0,0,1-.81,4,10.62,10.62,0,0,1-2.23,3.35c-.17.17-.35.33-.53.49v9H68V41.46a10.94,10.94,0,0,1-1.34-2.27A10,10,0,0,1,65.89,35.2Z"/><path class="cls-8" d="M72.27,44.77c-.29-.13-.57-.26-.85-.41V52h8.52V45a9.86,9.86,0,0,1-3.49.65A10.54,10.54,0,0,1,72.27,44.77Z"/><path class="cls-8" d="M72.76,13.82V25.19a8.14,8.14,0,0,1,3.69-.81,9.46,9.46,0,0,1,3.49.67V0H71.42V11.13a3.51,3.51,0,0,1,.36.29A3.23,3.23,0,0,1,72.76,13.82Z"/><path class="cls-9" d="M90.73,44.49a3.91,3.91,0,0,1-.79-1.16,3.38,3.38,0,0,1-.3-1.42V28.08a3.35,3.35,0,0,1,.3-1.42,4.09,4.09,0,0,1,.79-1.17,3.78,3.78,0,0,1,1.1-.81h0V17.3h0a3.78,3.78,0,0,1-1.1-.81,4,4,0,0,1-.79-1.18,3.46,3.46,0,0,1-.3-1.4,3.11,3.11,0,0,1,.3-1.38,3.67,3.67,0,0,1,.79-1.08,3.36,3.36,0,0,1,1.1-.73h0V0H83.33V27.16q.21.18.42.39a10.84,10.84,0,0,1,3.1,7.65,9.73,9.73,0,0,1-.83,4,10.79,10.79,0,0,1-2.27,3.31l-.42.39V52h8.51V45.3h0A3.78,3.78,0,0,1,90.73,44.49Z"/><path class="cls-10" d="M100.55,44.62a3.34,3.34,0,0,1-1-2.46,4.8,4.8,0,0,1,.89-2.59l3.28-3.18V31.55H103a3.1,3.1,0,0,1-1.38-.29,3.67,3.67,0,0,1-1.08-.79,3.47,3.47,0,0,1-.72-1.12,3.43,3.43,0,0,1-.26-1.27,4,4,0,0,1,.26-1.4,3.6,3.6,0,0,1,1.8-2,3.11,3.11,0,0,1,1.38-.3h.73V0H95.23V11.12a3.37,3.37,0,0,1,.44.33,3.16,3.16,0,0,1,1.1,2.46,3.46,3.46,0,0,1-.3,1.4,3.68,3.68,0,0,1-.8,1.18,3.75,3.75,0,0,1-.44.37v8.26a3.68,3.68,0,0,1,1.24,1.54,3.35,3.35,0,0,1,.3,1.42V41.91a3.38,3.38,0,0,1-.3,1.42,3.59,3.59,0,0,1-.8,1.16,3.75,3.75,0,0,1-.44.37V52h8.51V45.6H103A3.34,3.34,0,0,1,100.55,44.62Z"/><polygon class="cls-11" points="111.62 38.72 115.65 38.72 115.65 34.67 111.62 38.72"/><rect class="cls-11" x="107.13" y="45.6" width="8.51" height="6.37"/><rect class="cls-11" x="107.13" width="8.51" height="24.38"/><polygon class="cls-11" points="108.73 31.55 107.13 31.55 107.13 33.11 108.73 31.55"/><path class="cls-12" d="M124.56,44.62a3.34,3.34,0,0,1-1-2.46,4.8,4.8,0,0,1,.89-2.59l3.08-3v-5H127a3.1,3.1,0,0,1-1.38-.29,3.67,3.67,0,0,1-1.08-.79,3.47,3.47,0,0,1-.72-1.12,3.43,3.43,0,0,1-.26-1.27,4,4,0,0,1,.26-1.4,3.6,3.6,0,0,1,1.8-2,3.11,3.11,0,0,1,1.38-.3h.53V0H119V24.87a3.5,3.5,0,0,1,.77.62,3.58,3.58,0,0,1,.72,1.19,3.94,3.94,0,0,1,.25,1.4,3.12,3.12,0,0,1-.89,2.33l-.85.86v7.87a3.44,3.44,0,0,1,.77.56,3.6,3.6,0,0,1,0,4.92,3.44,3.44,0,0,1-.77.56V52h8.51V45.6H127A3.34,3.34,0,0,1,124.56,44.62Z"/><polygon class="cls-13" points="135.63 38.72 139.46 38.72 139.46 34.88 135.63 38.72"/><polygon class="cls-13" points="132.75 31.55 130.94 31.55 130.94 33.3 132.75 31.55"/><rect class="cls-13" x="130.94" width="8.51" height="24.38"/><rect class="cls-13" x="130.94" y="45.6" width="8.51" height="6.37"/><path class="cls-14" d="M142.85,24.75a3.47,3.47,0,0,1,1,.74,3.58,3.58,0,0,1,.72,1.19,4,4,0,0,1,.26,1.4,3.16,3.16,0,0,1-.89,2.33l-1.06,1.07V39a3.27,3.27,0,0,1,1,.66,3.45,3.45,0,0,1-1,5.59V52h8.51V0h-8.51Z"/><rect class="cls-15" x="154.75" width="8.51" height="51.97"/><rect class="cls-16" x="166.65" width="8.51" height="51.97"/><path class="cls-17" d="M86,39.19a9.73,9.73,0,0,0,.83-4,10.84,10.84,0,0,0-3.1-7.65q-.21-.21-.42-.39a11.17,11.17,0,0,0-2.91-1.93c-.16-.07-.32-.12-.48-.18a9.46,9.46,0,0,0-3.49-.67,8.14,8.14,0,0,0-3.69.81V13.82a3.23,3.23,0,0,0-1-2.4,3.61,3.61,0,0,0-2.5-.95,3.6,3.6,0,0,0-1.25.21,3.19,3.19,0,0,0-2.14,3.14V35.2a10,10,0,0,0,.8,4A10.94,10.94,0,0,0,68,41.46a12.53,12.53,0,0,0,.89,1,10.43,10.43,0,0,0,2.5,1.86c.28.15.56.28.85.41a10.54,10.54,0,0,0,4.18.83A9.86,9.86,0,0,0,79.94,45c.16-.06.32-.11.48-.18a11,11,0,0,0,2.91-1.88l.42-.39A10.79,10.79,0,0,0,86,39.19Z"/><path class="cls-17" d="M38.27,44.52a3.55,3.55,0,0,0,.8-1.15,3.38,3.38,0,0,0,.3-1.42V34.86a9.62,9.62,0,0,0-.85-4,10.26,10.26,0,0,0-2.31-3.33c-.16-.16-.33-.3-.5-.45a11.43,11.43,0,0,0-2.91-1.82c-.16-.07-.32-.12-.48-.18a10.41,10.41,0,0,0-3.72-.67,9.07,9.07,0,0,0-3.67.76,11.74,11.74,0,0,0-1.12.57,9.85,9.85,0,0,0-2,1.47,12.3,12.3,0,0,0-1.43-1.06,13.38,13.38,0,0,0-1.88-1,9.57,9.57,0,0,0-3.73-.76,8,8,0,0,0-2.38.34c-.18.05-.35.12-.53.18-.55.18-1.1.37-1.63.58a4.65,4.65,0,0,0-1-.76,2.47,2.47,0,0,0-.72-.26,3.52,3.52,0,0,0-.75-.08,3.07,3.07,0,0,0-2.43,1.1,3.88,3.88,0,0,0-1,2.63V42a3.76,3.76,0,0,0,1,2.57A3.08,3.08,0,0,0,7.76,45.6a3.66,3.66,0,0,0,.75-.09,3.33,3.33,0,0,0,.63-.21,4,4,0,0,0,1.15-.78,3.83,3.83,0,0,0,.78-1.15,3.38,3.38,0,0,0,.3-1.42V35.2a3.94,3.94,0,0,1,.53-2,3.77,3.77,0,0,1,.43-.58,3.14,3.14,0,0,1,2.48-1.08,3.12,3.12,0,0,1,2.44,1.08,3.87,3.87,0,0,1,.95,2.61V42a3.38,3.38,0,0,0,.3,1.42,4,4,0,0,0,.78,1.15,3.76,3.76,0,0,0,1.14.77h0a3.38,3.38,0,0,0,1.42.3,3.14,3.14,0,0,0,2-.64,3.29,3.29,0,0,0,.48-.44A3.75,3.75,0,0,0,25.24,42V35.2a3.51,3.51,0,0,1,.3-1.44,4.14,4.14,0,0,1,.76-1.17,4.08,4.08,0,0,1,1.07-.78,2.66,2.66,0,0,1,1.23-.3,3.7,3.7,0,0,1,3.69,3.69V42c0,.15,0,.29,0,.43a3.73,3.73,0,0,0,.92,2.14,3.12,3.12,0,0,0,2.44,1.08h0a3.39,3.39,0,0,0,1.39-.29A4.27,4.27,0,0,0,38.27,44.52Z"/><path class="cls-17" d="M62.28,39.11a10.25,10.25,0,0,0,.81-4V28a3.75,3.75,0,0,0-.94-2.56,3,3,0,0,0-2.41-1.09,1.46,1.46,0,0,0-.22,0,3.29,3.29,0,0,0-1.21.27,4,4,0,0,0-1.16.81,4,4,0,0,0-.81,1.17,3.43,3.43,0,0,0-.21.64,3.55,3.55,0,0,0-.08.73v6.79a3.79,3.79,0,0,1-1,2.61,3.16,3.16,0,0,1-2.48,1.08,3.1,3.1,0,0,1-2.44-1.08,3.79,3.79,0,0,1-1-2.61V28a3.37,3.37,0,0,0-.29-1.37,4,4,0,0,0-.81-1.17,3.89,3.89,0,0,0-.49-.42,4.14,4.14,0,0,0-.68-.39,3.35,3.35,0,0,0-1.42-.3,3.2,3.2,0,0,0-1.29.26,3,3,0,0,0-1.13.83A3.79,3.79,0,0,0,42.17,28v6.79A10.38,10.38,0,0,0,43,39a11.48,11.48,0,0,0,1.21,2.14,10.19,10.19,0,0,0,1.06,1.3,10.45,10.45,0,0,0,2.33,1.8,8.26,8.26,0,0,0,1,.51,9.59,9.59,0,0,0,4,.85A10.26,10.26,0,0,0,56.13,45c.2-.08.4-.14.59-.23a10.74,10.74,0,0,0,2.8-1.8c.18-.16.36-.32.53-.49A10.62,10.62,0,0,0,62.28,39.11Z"/><path class="cls-17" d="M96.47,43.33a3.38,3.38,0,0,0,.3-1.42V28.08a3.35,3.35,0,0,0-.3-1.42,3.68,3.68,0,0,0-1.24-1.54,4.16,4.16,0,0,0-.73-.44,3.38,3.38,0,0,0-1.42-.3,2.79,2.79,0,0,0-1.24.3h0a3.78,3.78,0,0,0-1.1.81,4.09,4.09,0,0,0-.79,1.17,3.35,3.35,0,0,0-.3,1.42V41.91a3.38,3.38,0,0,0,.3,1.42,3.91,3.91,0,0,0,.79,1.16,3.78,3.78,0,0,0,1.1.81h0a2.79,2.79,0,0,0,1.24.3,3.38,3.38,0,0,0,1.42-.3,4.16,4.16,0,0,0,.73-.44,3.75,3.75,0,0,0,.44-.37A3.59,3.59,0,0,0,96.47,43.33Z"/><path class="cls-17" d="M90.73,11.45a3.67,3.67,0,0,0-.79,1.08,3.11,3.11,0,0,0-.3,1.38,3.46,3.46,0,0,0,.3,1.4,4,4,0,0,0,.79,1.18,3.78,3.78,0,0,0,1.1.81h0a2.79,2.79,0,0,0,1.24.3,3.38,3.38,0,0,0,1.42-.3,4.16,4.16,0,0,0,.73-.44,3.75,3.75,0,0,0,.44-.37,3.68,3.68,0,0,0,.8-1.18,3.46,3.46,0,0,0,.3-1.4,3.16,3.16,0,0,0-1.1-2.46,3.37,3.37,0,0,0-.44-.33,3.74,3.74,0,0,0-2.15-.65,3.19,3.19,0,0,0-1.24.25h0A3.36,3.36,0,0,0,90.73,11.45Z"/><path class="cls-17" d="M120.78,42.16a3.33,3.33,0,0,0-1-2.46,3.44,3.44,0,0,0-.77-.56,3.5,3.5,0,0,0-1.69-.42h-5.73l4-4L119,31.27l.85-.86a3.12,3.12,0,0,0,.89-2.33,3.94,3.94,0,0,0-.25-1.4,3.58,3.58,0,0,0-.72-1.19,3.5,3.5,0,0,0-.77-.62c-.11-.06-.2-.14-.31-.19a3.11,3.11,0,0,0-1.38-.3H103a3.11,3.11,0,0,0-1.38.3,3.6,3.6,0,0,0-1.8,2,4,4,0,0,0-.26,1.4,3.43,3.43,0,0,0,.26,1.27,3.47,3.47,0,0,0,.72,1.12,3.67,3.67,0,0,0,1.08.79,3.1,3.1,0,0,0,1.38.29h5.72l-1.6,1.56-3.39,3.28-3.28,3.18a4.8,4.8,0,0,0-.89,2.59A3.35,3.35,0,0,0,103,45.6h14.34a3.5,3.5,0,0,0,1.69-.42,3.44,3.44,0,0,0,.77-.56A3.33,3.33,0,0,0,120.78,42.16Z"/><path class="cls-17" d="M144.8,42.16a3.34,3.34,0,0,0-1-2.46,3.27,3.27,0,0,0-1-.66,3.61,3.61,0,0,0-1.49-.32h-5.73l3.83-3.84,3.39-3.4,1.06-1.07a3.16,3.16,0,0,0,.89-2.33,4,4,0,0,0-.26-1.4,3.58,3.58,0,0,0-.72-1.19,3.47,3.47,0,0,0-1-.74l-.11-.07a3.11,3.11,0,0,0-1.38-.3H127a3.11,3.11,0,0,0-1.38.3,3.6,3.6,0,0,0-1.8,2,4,4,0,0,0-.26,1.4,3.43,3.43,0,0,0,.26,1.27,3.47,3.47,0,0,0,.72,1.12,3.67,3.67,0,0,0,1.08.79,3.1,3.1,0,0,0,1.38.29h5.73l-1.81,1.76-3.39,3.28-3.08,3a4.8,4.8,0,0,0-.89,2.59A3.35,3.35,0,0,0,127,45.6h14.34a3.61,3.61,0,0,0,1.49-.31,3.33,3.33,0,0,0,2-3.13Z"/></g></g></svg>