<svg xmlns="http://www.w3.org/2000/svg" viewBox="0 0 595.59 171.96"><defs><style>.cls-1{fill:none;}.cls-2{fill:#83cfc2;}.cls-3{fill:#1b64bb;}.cls-4{fill:#000002;}.cls-5{fill:#fffa44;}.cls-6{fill:#f54832;}.cls-7{fill:#d99bbf;}</style></defs><title>Asset 11</title><g id="Layer_2" data-name="Layer 2"><g id="Layer_1-2" data-name="Layer 1"><path class="cls-1" d="M342.2,37h37.59a.7.7,0,0,0,.71-.7V5.7a.7.7,0,0,0-.71-.7H342.2a.7.7,0,0,0-.7.7V36.3A.7.7,0,0,0,342.2,37Zm21.57-23.46A9.77,9.77,0,1,1,354,23.31,9.77,9.77,0,0,1,363.77,13.54Z"/><path class="cls-1" d="M324.19,92.83s0,0,0,0a.94.94,0,0,1,0,.16Z"/><path class="cls-1" d="M483,82.93,445,121l35.84,0,0-.28a11.4,11.4,0,0,1,.38-4.71,5.91,5.91,0,0,1,1.6-2.85L527,70.4l-41.49-.69.4,3.65A11.33,11.33,0,0,1,483,82.93Z"/><path class="cls-1" d="M372,56a6.07,6.07,0,0,1,.15-2.27A3,3,0,0,0,370,52.9H355.54v83.43a6.37,6.37,0,0,1-1.75,4.69,5.8,5.8,0,0,1-4.27,1.75h-2.3a3.77,3.77,0,0,0,.95,2.38,3.37,3.37,0,0,0,2.67,1H370a3.3,3.3,0,0,0,2.5-1,3.89,3.89,0,0,0,1-2.92V70.12Z"/><path class="cls-1" d="M126.85,135a4.8,4.8,0,0,1-.07.85s0,.05,0,.07l0,.12a4.22,4.22,0,0,1-.22.77s0,0,0,.06v0a4.62,4.62,0,0,1-.33.67l0,.06-.12.17-.23.34c-.09.1-.18.21-.28.31l-.21.22a6.26,6.26,0,0,1-.49.41l0,0h0a4.37,4.37,0,0,1-.65.4l-.08,0a5.5,5.5,0,0,1-.61.23l-.33.11a5.54,5.54,0,0,1-1,.16l-18.48,1.08a6,6,0,0,1-1.13,0,5,5,0,0,1-2.53-1.13,4.41,4.41,0,0,1-1.17-1.41l-8.29-16.26a3.56,3.56,0,0,0,.31.48,4,4,0,0,1-.67-1.61,21.28,21.28,0,1,0,36.75,5.34Z"/><path class="cls-1" d="M311.27,77.33A30.07,30.07,0,0,1,320,84.16a24.81,24.81,0,0,0,3.41-13.09,31.54,31.54,0,0,0-3-14.4,16.66,16.66,0,0,0-5.12-5.75,39.06,39.06,0,0,1,1.18,9.9A27,27,0,0,1,311.27,77.33Z"/><path class="cls-1" d="M259.24,132h-7.1v6.19c0,.12,0,.39.62.83a4.67,4.67,0,0,0,2.76.73h10.17A22.85,22.85,0,0,1,259.24,132Z"/><path class="cls-1" d="M321.62,117.7q-2.79,6-11.19,10.15A37.25,37.25,0,0,1,300.19,131a22.67,22.67,0,0,1-6.95,8.79h2.58c10,0,17.72-1.33,22.95-3.94a30.21,30.21,0,0,0,5.42-3.41V109.63A33,33,0,0,1,321.62,117.7Z"/><path class="cls-1" d="M28.84,36.25a8.06,8.06,0,0,1,1.38.06,8.28,8.28,0,0,1,1.53.37,4.75,4.75,0,0,1,2.07,1.13L59.57,63.25,86.4,34.87A7.22,7.22,0,0,1,90,32.93a37.07,37.07,0,0,1,4.76-.54l18.63-1.09a5.19,5.19,0,0,1,1,0,4.29,4.29,0,0,1,1.44.48l-.07-20a1.57,1.57,0,0,0-.62-1.3,2,2,0,0,0-1.09-.54,2.43,2.43,0,0,0-.47,0L95,11.05a35.08,35.08,0,0,0-4.44.5,4.77,4.77,0,0,0-2.35,1.26L59.64,43,32,15.64h0a4.34,4.34,0,0,0-1-.42A5.51,5.51,0,0,0,29.88,15a3.82,3.82,0,0,0-.89,0L7.6,16.17A2.67,2.67,0,0,0,5.73,17,2.09,2.09,0,0,0,5,18.58l.07,19.65a5.18,5.18,0,0,1,2.38-.72Z"/><path class="cls-1" d="M162.24,88.23l0,.35a2.29,2.29,0,0,0,0-.25S162.24,88.26,162.24,88.23Z"/><path class="cls-1" d="M225.63,38.57a1.67,1.67,0,0,0-.08-.2,2.64,2.64,0,0,1,.15.55,1.55,1.55,0,0,0,0-.21Z"/><path class="cls-1" d="M163.41,93.82a2.77,2.77,0,0,0,.1.26v0Z"/><path class="cls-1" d="M145.55,148.11a33.65,33.65,0,0,0,14.54,14.27,38.92,38.92,0,0,0,13,4.05,62.38,62.38,0,0,0,12.08.42c11.09-.61,20-3.13,26.41-7.5s10.88-9.6,13.31-15.64a49.94,49.94,0,0,0,3.52-16c-.13.23-.24.47-.38.7l0,0a3.28,3.28,0,0,1-.2.31c-.37.6-.76,1.2-1.18,1.78-.17.24-.35.47-.52.7s-.47.64-.73,1l-.31.35c-.22.27-.45.53-.68.79s-.71.8-1.08,1.18l-.76.78c-.17.17-.33.35-.51.51s-.39.34-.57.51c-.37.34-.75.68-1.14,1s-.74.62-1.12.92-.81.64-1.23,1l-.61.46-1.22.86c-.78.53-1.59,1-2.43,1.49l-.75.41-1,.52c-.3.15-.61.28-.91.42l-1,.44c-.68.3-1.38.58-2.09.86l-.81.31c-1,.36-2,.69-3.07,1l-.59.16c-.87.24-1.77.47-2.69.67-.38.09-.77.16-1.15.24-.77.16-1.56.31-2.36.44l-1.28.21c-.84.12-1.69.23-2.56.33l-1.18.14c-1.27.12-2.56.23-3.89.3a65,65,0,0,1-12.57-.44,41.06,41.06,0,0,1-13.85-4.32,36,36,0,0,1-15.58-15.32l-.16-.3-5.56-10.91,0,10.76A43.16,43.16,0,0,0,145.55,148.11Z"/><path class="cls-1" d="M225.75,39.18v0a4.73,4.73,0,0,1,0,.85,4.8,4.8,0,0,0,0-.66A.88.88,0,0,0,225.75,39.18Z"/><path class="cls-2" d="M353.79,141a6.37,6.37,0,0,0,1.75-4.69V52.9h-4.7A3.23,3.23,0,0,0,348.23,54a4.13,4.13,0,0,0-1.05,2.89v85.35c0,.21,0,.39,0,.58h2.3A5.8,5.8,0,0,0,353.79,141Z"/><path class="cls-2" d="M342.18,56.84a9.07,9.07,0,0,1,2.31-6.21,8.27,8.27,0,0,1,6.35-2.73h4a6.17,6.17,0,0,0-1-1.47,5.6,5.6,0,0,0-4.27-1.89H330.35a5.69,5.69,0,0,0-4.48,1.89A6.6,6.6,0,0,0,324.19,51v2.31c.22.36.45.73.65,1.11a36.48,36.48,0,0,1,3.56,16.67,30,30,0,0,1-4.13,15.69,27.29,27.29,0,0,1,9.18,9c2.31,4,3.49,9.07,3.49,15.18a36.37,36.37,0,0,1-.15,3.71A38.62,38.62,0,0,1,333.34,129c-1.67,3.56-4.67,6.69-8.88,9.35a5.64,5.64,0,0,0,5.89,4.41h11.86c0-.19,0-.38,0-.58Z"/><path class="cls-2" d="M331.81,114.17c.08-.76.13-1.84.13-3.23,0-5.21-.95-9.47-2.81-12.66a19.81,19.81,0,0,0-4.94-5.45V93a39.93,39.93,0,0,1,.65,11.25,40.53,40.53,0,0,1-.65,5.43v22.81a16,16,0,0,0,4.63-5.56,34,34,0,0,0,3-12.58Z"/><circle class="cls-3" cx="363.77" cy="23.31" r="9.77"/><path class="cls-2" d="M87.35,55.16,69.68,77.73a11.51,11.51,0,0,1-8.86,4.93,12.19,12.19,0,0,1-2.34-.08,11.35,11.35,0,0,1-2.67-.72,9.51,9.51,0,0,1-4-2.84l-18.43-21L33.71,145l-5,0L28.39,44.75l27.34,31.1a4.51,4.51,0,0,0,1.94,1.37,6.42,6.42,0,0,0,1.5.4,6.06,6.06,0,0,0,1.35,0,6.57,6.57,0,0,0,5.18-3l26.6-34,.19,55.81a1.6,1.6,0,0,0,.68,1.34,2.57,2.57,0,0,0,1.31.6,3.14,3.14,0,0,0,.62,0l18.5-1.08a2.45,2.45,0,0,0,1.77-.8,2.32,2.32,0,0,0,.68-1.73l-.21-63.08a4.29,4.29,0,0,0-1.44-.48,5.19,5.19,0,0,0-1,0L94.8,32.39a37.07,37.07,0,0,0-4.76.54,7.22,7.22,0,0,0-3.64,1.94L59.57,63.25,33.82,37.81a4.75,4.75,0,0,0-2.07-1.13,8.28,8.28,0,0,0-1.53-.37,8.06,8.06,0,0,0-1.38-.06L7.45,37.51a5.18,5.18,0,0,0-2.38.72l.21,63.42H2.7l.08,23.83a4.24,4.24,0,0,0,.71,2.3l-.26-.4,8.3,16.26a4.57,4.57,0,0,0,1,1.31A4.38,4.38,0,0,0,15,146.17a5.09,5.09,0,0,0,1,0l18.63-1.09a5.68,5.68,0,0,0,1-.16,1.63,1.63,0,0,0,.31-.11,3.38,3.38,0,0,0,.63-.23l.07,0a5.52,5.52,0,0,0,.66-.4h0l0,0a6.26,6.26,0,0,0,.49-.41l.21-.2.26-.31a4.15,4.15,0,0,0,.24-.34l.12-.17.05-.07a6,6,0,0,0,.34-.67v0a.14.14,0,0,1,0-.06,6.23,6.23,0,0,0,.22-.77.5.5,0,0,0,0-.12.31.31,0,0,0,0-.08,5.69,5.69,0,0,0,.07-.83l-.31-48.6,22.86,26a7,7,0,0,0,3,2.13,8.43,8.43,0,0,0,2.08.56,8.74,8.74,0,0,0,1.85.07c.34,0,.67-.06,1-.11l.32-.07a6.4,6.4,0,0,0,.63-.14c.13,0,.25-.08.37-.12l.54-.19.37-.16.3-.13.13-.08a9.79,9.79,0,0,0,1-.59l.08-.06h0a9.38,9.38,0,0,0,.92-.77l.07,0,.16-.18a9.35,9.35,0,0,0,.67-.73c0-.06.11-.11.15-.17s.22-.27.33-.42l12.59-16.07a6.54,6.54,0,0,1-1.1-3.65Z"/><path class="cls-2" d="M126.78,116.82l-.21-64.93a4,4,0,0,0-.1-.86,1.36,1.36,0,0,0,0-.17.89.89,0,0,0,0-.14,3.44,3.44,0,0,0-.26-.67l-5.27-10.33.18,55.15a7.52,7.52,0,0,1-7.15,7.54l-18.5,1.08a8.61,8.61,0,0,1-1.61-.06A7.41,7.41,0,0,1,90,101.75l-.08-.07L90,114a26.22,26.22,0,0,1,36.81,2.83Z"/><path class="cls-2" d="M90.43,122.25l8.29,16.26a4.41,4.41,0,0,0,1.17,1.41,5,5,0,0,0,2.53,1.13,6,6,0,0,0,1.13,0L122,140a5.54,5.54,0,0,0,1-.16l.33-.11a5.5,5.5,0,0,0,.61-.23l.08,0a4.37,4.37,0,0,0,.65-.4h0l0,0a6.26,6.26,0,0,0,.49-.41l.21-.22c.1-.1.19-.21.28-.31l.23-.34.12-.17,0-.06a4.62,4.62,0,0,0,.33-.67v0s0,0,0-.06a4.22,4.22,0,0,0,.22-.77l0-.12s0,0,0-.07a4.8,4.8,0,0,0,.07-.85l0-8.51a21.23,21.23,0,0,0-36.75-5.34,4,4,0,0,0,.67,1.61A3.56,3.56,0,0,1,90.43,122.25Z"/><path class="cls-4" d="M93.79,103.43a8.61,8.61,0,0,0,1.61.06l18.5-1.08a7.52,7.52,0,0,0,7.15-7.54l-.18-55.15-.1-27.92a6.59,6.59,0,0,0-2.29-5A7,7,0,0,0,114.75,5a8,8,0,0,0-1.47,0L94.66,6.06a41.19,41.19,0,0,0-5.09.58,9.68,9.68,0,0,0-4.89,2.58L59.51,35.84,35.62,12.24a7.19,7.19,0,0,0-3.08-1.77,11,11,0,0,0-2-.47,9.79,9.79,0,0,0-1.87-.07L7.32,11.18A7.68,7.68,0,0,0,2.17,13.5,7.12,7.12,0,0,0,0,18.59l.28,83.08h5L5.07,38.23,5,18.58A2.09,2.09,0,0,1,5.73,17a2.67,2.67,0,0,1,1.87-.84L29,14.92a3.82,3.82,0,0,1,.89,0,5.51,5.51,0,0,1,1.09.26,4.34,4.34,0,0,1,1,.42h0L59.64,43,88.16,12.81a4.77,4.77,0,0,1,2.35-1.26,35.08,35.08,0,0,1,4.44-.5L113.59,10a2.43,2.43,0,0,1,.47,0,2,2,0,0,1,1.09.54,1.57,1.57,0,0,1,.62,1.3l.07,20,.21,63.08a2.32,2.32,0,0,1-.68,1.73,2.45,2.45,0,0,1-1.77.8L95.1,98.5a3.14,3.14,0,0,1-.62,0,2.57,2.57,0,0,1-1.31-.6,1.6,1.6,0,0,1-.68-1.34L92.3,40.73l-26.6,34a6.57,6.57,0,0,1-5.18,3,6.06,6.06,0,0,1-1.35,0,6.42,6.42,0,0,1-1.5-.4,4.51,4.51,0,0,1-1.94-1.37L28.39,44.75,28.71,145l5,0-.28-86.89L51.86,79a9.51,9.51,0,0,0,4,2.84,11.35,11.35,0,0,0,2.67.72,12.19,12.19,0,0,0,2.34.08,11.51,11.51,0,0,0,8.86-4.93L87.35,55.16l.14,41.4a6.54,6.54,0,0,0,1.1,3.65,6.87,6.87,0,0,0,1.34,1.47l.08.07A7.41,7.41,0,0,0,93.79,103.43Z"/><path class="cls-4" d="M107,107.75a26.34,26.34,0,1,0,19.83,9.07A26.17,26.17,0,0,0,107,107.75Zm0,47.56A21.24,21.24,0,1,1,128.23,134,21.31,21.31,0,0,1,107,155.31Z"/><path class="cls-5" d="M249.6,40.75a8.69,8.69,0,0,1,5.08-1.43h20.57l9.86-.28h0c11.08,0,19.85,1.34,26.14,4l.7.32c-2.36-3.38-6-6.13-11.11-8.26q-9-3.76-25.12-3.77l-9.94.28H245.22a6.13,6.13,0,0,0-3.63,1,2.93,2.93,0,0,0-1.4,2.51V128a3.44,3.44,0,0,0,1.68,2.86,7,7,0,0,0,4.19,1.19h1.08V45.32A5.42,5.42,0,0,1,249.6,40.75Z"/><path class="cls-5" d="M297.5,86.88a19.21,19.21,0,0,0-17.86,12.2,22.69,22.69,0,0,1,22.52,22.68,24.45,24.45,0,0,1-.2,3,19.19,19.19,0,0,0-4.46-37.86Z"/><path class="cls-5" d="M256.78,121.76a22.68,22.68,0,0,1,17.38-22.05,24.19,24.19,0,1,1,26.42,30.37c-.12.31-.25.61-.39.92a37.25,37.25,0,0,0,10.24-3.15q8.4-4.2,11.19-10.15a33,33,0,0,0,2.57-8.07,40.53,40.53,0,0,0,.65-5.43A39.93,39.93,0,0,0,324.19,93a.94.94,0,0,0,0-.16,33.39,33.39,0,0,0-4.63-3L317,88.39l1.7-2.3c.47-.63.88-1.27,1.28-1.93a30.07,30.07,0,0,0-8.72-6.83,27,27,0,0,0,5.18-16.51,39.06,39.06,0,0,0-1.18-9.9,29,29,0,0,0-5.94-3.3c-5.68-2.37-13.8-3.58-24.15-3.58l-9.86.28H254.68a3.85,3.85,0,0,0-2.21.53c-.33.23-.33.35-.33.47V132h7.1A22.59,22.59,0,0,1,256.78,121.76Z"/><path d="M333.34,129a38.62,38.62,0,0,0,3.45-14.36,36.37,36.37,0,0,0,.15-3.71c0-6.11-1.18-11.22-3.49-15.18a27.29,27.29,0,0,0-9.18-9,30,30,0,0,0,4.13-15.69,36.48,36.48,0,0,0-3.56-16.67c-.2-.38-.43-.75-.65-1.11-2.46-4.12-6.57-7.47-12.23-10l-.7-.32c-6.29-2.63-15.06-4-26.14-4h0l-9.86.28H254.68a8.69,8.69,0,0,0-5.08,1.43,5.42,5.42,0,0,0-2.46,4.57v92.91a5.85,5.85,0,0,0,2.74,4.91,9.56,9.56,0,0,0,5.64,1.65h40.3c10.79,0,19.26-1.5,25.18-4.46a37.76,37.76,0,0,0,3.46-2C328.67,135.7,331.67,132.57,333.34,129Zm-9.15,3.43a30.21,30.21,0,0,1-5.42,3.41c-5.23,2.61-12.95,3.94-22.95,3.94h-2.58a22.69,22.69,0,0,1-27.55,0H255.52a4.67,4.67,0,0,1-2.76-.73c-.62-.44-.62-.71-.62-.83V45.32c0-.12,0-.24.33-.47a3.85,3.85,0,0,1,2.21-.53h20.64l9.86-.28c10.35,0,18.47,1.21,24.15,3.58a29,29,0,0,1,5.94,3.3,16.66,16.66,0,0,1,5.12,5.75,31.54,31.54,0,0,1,3,14.4A24.81,24.81,0,0,1,320,84.16c-.4.66-.81,1.3-1.28,1.93l-1.7,2.3,2.51,1.38a33.39,33.39,0,0,1,4.63,3s0,0,0,0a19.81,19.81,0,0,1,4.94,5.45c1.86,3.19,2.81,7.45,2.81,12.66,0,1.39-.05,2.47-.13,3.23v.13a34,34,0,0,1-3,12.58A16,16,0,0,1,324.19,132.44Z"/><path class="cls-2" d="M300.19,131c.14-.31.27-.61.39-.92a24.18,24.18,0,0,1-26.42-30.37,22.68,22.68,0,1,0,26,31.29Z"/><path class="cls-2" d="M279.64,99.08a19,19,0,0,0-1.34,7A19.14,19.14,0,0,0,302,124.74a24.45,24.45,0,0,0,.2-3A22.69,22.69,0,0,0,279.64,99.08Z"/><polygon class="cls-4" points="318.2 22.45 323.2 22.45 323.2 17.45 328.2 17.45 328.2 12.45 323.2 12.45 323.2 7.45 318.2 7.45 318.2 12.45 313.2 12.45 313.2 17.45 318.2 17.45 318.2 22.45"/><path class="cls-4" d="M321.69,106.08a24.19,24.19,0,0,0-47.53-6.37,23.94,23.94,0,0,0-.86,6.37,24.2,24.2,0,1,0,48.39,0ZM302,124.74a19.14,19.14,0,0,1-23.66-18.66,19,19,0,0,1,1.34-7A19.19,19.19,0,1,1,302,124.74Z"/><path class="cls-3" d="M234.06,75.82V56.27a4.8,4.8,0,0,0,0-.66.88.88,0,0,0,0-.17c0-.17,0-.32-.08-.47s0-.07,0-.1,0,0,0,0a2.62,2.62,0,0,0-.19-.49q-4.15-8.13-8.29-16.26a.49.49,0,0,0,0,.11,3.17,3.17,0,0,0-1-1.22,5,5,0,0,0-2.26-.83,8.85,8.85,0,0,0-1.81-.06l-18.35,1A7.07,7.07,0,0,0,198,38.56a3.87,3.87,0,0,0-1.73,3.07L196,85.5q0,17.44-16,18.33a22.56,22.56,0,0,1-4.32-.16,15.65,15.65,0,0,1-5.18-1.63l-.52-42.51a3.57,3.57,0,0,0-.08-.74l0-.16,0-.14a3.08,3.08,0,0,0-.21-.53l-.62-1.21a20.23,20.23,0,0,1-35.87-3.84l.1,37.9a46.62,46.62,0,0,0,2.58,15.62L135.69,82c0-1.91.69-6.37,7.05-6.72l18.08-1a13.28,13.28,0,0,1,2.56.09,7.86,7.86,0,0,1,3.2,1.12,5.67,5.67,0,0,1,2.67,4.93l.53,43c.08,5.07,1.44,8.85,4.15,11.52a12.19,12.19,0,0,0,7.15,3.4,20.14,20.14,0,0,0,3.85.13c9.31-.51,13.65-5.54,13.66-15.82l.29-43.89,5,0-.29,43.87c0,12.94-6.36,20.14-18.39,20.81a25.27,25.27,0,0,1-4.81-.18,17.15,17.15,0,0,1-10-4.79c-3.64-3.59-5.54-8.64-5.64-15l-.53-43a.72.72,0,0,0-.36-.75,3.14,3.14,0,0,0-1.2-.38,8.17,8.17,0,0,0-1.6,0l-18.07,1c-2.33.13-2.33.91-2.33,1.73l.08,35.2,5.56,10.91.16.3a36,36,0,0,0,15.58,15.32A41.06,41.06,0,0,0,175.92,148a65,65,0,0,0,12.57.44c1.33-.07,2.62-.18,3.89-.3l1.18-.14c.87-.1,1.72-.21,2.56-.33l1.28-.21c.8-.13,1.59-.28,2.36-.44.38-.08.77-.15,1.15-.24.92-.2,1.82-.43,2.69-.67l.59-.16c1.05-.3,2.07-.63,3.07-1l.81-.31c.71-.28,1.41-.56,2.09-.86l1-.44c.3-.14.61-.27.91-.42l1-.52.75-.41c.84-.47,1.65-1,2.43-1.49l1.22-.86.61-.46c.42-.32.83-.63,1.23-1s.75-.61,1.12-.92.77-.67,1.14-1c.18-.17.39-.33.57-.51s.34-.34.51-.51l.76-.78c.37-.38.73-.78,1.08-1.18s.46-.52.68-.79l.31-.35c.26-.32.48-.64.73-1s.35-.46.52-.7c.42-.58.81-1.18,1.18-1.78a3.28,3.28,0,0,0,.2-.31l0,0c.14-.23.25-.47.38-.7.07-1.17.11-2.35.09-3.54,0-.25,0-1.61-.06-4.74s-.06-10.68-.06-22.77l0-19.72c0-.61-.13-.73-.28-.84l2.93-4a5.71,5.71,0,0,1,2.34,5.14V96.7q0,10.38,0,16.34v0c0-.2.08-.39.11-.58s.06-.48.1-.71.09-.66.13-1c.07-.5.12-1,.17-1.51l.09-1q.06-.83.09-1.65c0-.28,0-.56,0-.83,0-.83,0-1.66,0-2.5,0-.18,0-1.76-.06-4.75S234.06,88,234.06,75.82ZM162.24,88.23s0,.07,0,.1a2.29,2.29,0,0,1,0,.25Zm1.17,5.59.09.24v0A2.77,2.77,0,0,1,163.41,93.82Zm62.14-55.45a1.67,1.67,0,0,1,.08.2l0,.14a1.55,1.55,0,0,1,0,.21A2.64,2.64,0,0,0,225.55,38.37Zm.2.79v0a.88.88,0,0,1,0,.17,4.8,4.8,0,0,1,0,.66A4.73,4.73,0,0,0,225.75,39.16Z"/><path class="cls-4" d="M233.4,96.7V77.22a5.71,5.71,0,0,0-2.34-5.14l-2.93,4c.15.11.32.23.28.84l0,19.72c0,12.09,0,19.75.06,22.77s.06,4.49.06,4.74c0,1.19,0,2.37-.09,3.54a49.94,49.94,0,0,1-3.52,16c-2.43,6-6.91,11.3-13.31,15.64s-15.32,6.89-26.41,7.5a62.38,62.38,0,0,1-12.08-.42,38.92,38.92,0,0,1-13-4.05,33.65,33.65,0,0,1-14.54-14.27,43.16,43.16,0,0,1-4.75-20.17l0-10.76L140.69,82c0-.82,0-1.6,2.33-1.73l18.07-1a8.17,8.17,0,0,1,1.6,0,3.14,3.14,0,0,1,1.2.38.72.72,0,0,1,.36.75l.53,43c.1,6.37,2,11.42,5.64,15a17.15,17.15,0,0,0,10,4.79,25.27,25.27,0,0,0,4.81.18c12-.67,18.38-7.87,18.39-20.81l.29-43.87-5,0-.29,43.89c0,10.28-4.35,15.31-13.66,15.82a20.14,20.14,0,0,1-3.85-.13,12.19,12.19,0,0,1-7.15-3.4c-2.71-2.67-4.07-6.45-4.15-11.52l-.53-43a5.67,5.67,0,0,0-2.67-4.93,7.86,7.86,0,0,0-3.2-1.12,13.28,13.28,0,0,0-2.56-.09l-18.08,1c-6.36.35-7.05,4.81-7.05,6.72l.06,24.45.05,21.51a48.2,48.2,0,0,0,5.31,22.48,38.67,38.67,0,0,0,16.63,16.37,43.66,43.66,0,0,0,14.68,4.59,62.51,62.51,0,0,0,8.75.58c1.41,0,2.84,0,4.3-.12,12-.66,21.74-3.47,28.94-8.35s12.33-10.94,15.13-17.91a55,55,0,0,0,4-21.36c0-.33,0-2.67-.06-4.84,0-1.27,0-3.4,0-6.34Q233.39,107.08,233.4,96.7Z"/><polygon class="cls-4" points="212.67 22.45 217.67 22.45 217.67 17.45 222.67 17.45 222.67 12.45 217.67 12.45 217.67 7.45 212.67 7.45 212.67 12.45 207.67 12.45 207.67 17.45 212.67 17.45 212.67 22.45"/><path class="cls-6" d="M152,66a20.29,20.29,0,1,0-18.91-13A20.2,20.2,0,0,0,152,66Z"/><path class="cls-6" d="M504.19,144.74a8,8,0,0,1-4.55-2.87,11.17,11.17,0,0,1-2.53-5.88L495,116.59a14,14,0,0,1,.47-5.74,8.25,8.25,0,0,1,2.32-3.95l39.85-38.53L497,67.7a9.73,9.73,0,0,1-2-.23,8.08,8.08,0,0,1-4.44-2.75A10.89,10.89,0,0,1,488,58.87l-2-18.16a8.9,8.9,0,0,1,0-1.93l-9.4-.19a4.63,4.63,0,0,0-3.44,1.81,5.43,5.43,0,0,0-1.38,4.05l4.18.08a6.74,6.74,0,0,1,1.35.17,7.36,7.36,0,0,1,4,2.55,11.08,11.08,0,0,1,2.43,6.11l1.81,16.35L527,70.4l-44.26,42.78a5.91,5.91,0,0,0-1.6,2.85,11.4,11.4,0,0,0-.38,4.71l0,.28h3.85a7.4,7.4,0,0,1,1.61.19,6.91,6.91,0,0,1,4.41,3.34l-4.29,2.57a1.91,1.91,0,0,0-1.26-1,2,2,0,0,0-.51-.06h-3.25l1.55,14.11a8.8,8.8,0,0,0,2,4.61,5.61,5.61,0,0,0,3.17,2,7.16,7.16,0,0,0,1.5.18l83.31,1.36a3.45,3.45,0,0,0,3.67-2.14L506.22,145A9.48,9.48,0,0,1,504.19,144.74Z"/><path class="cls-6" d="M477.47,50.49a2.5,2.5,0,0,0-1.29-.92,1.06,1.06,0,0,0-.31,0l-3.55-.07L473.81,63a8.41,8.41,0,0,0,2,4.52,5.64,5.64,0,0,0,3.08,1.92,7.37,7.37,0,0,0,1.44.17h.17L478.74,53.9A6.24,6.24,0,0,0,477.47,50.49Z"/><path class="cls-6" d="M491,40.17l2,18.15a5.86,5.86,0,0,0,1.41,3.19,3.09,3.09,0,0,0,1.73,1.09,4.28,4.28,0,0,0,.9.1l52.75.88L501,110.7a4,4,0,0,0-.79,1.65,9,9,0,0,0-.27,3.69l2.14,19.39a6.15,6.15,0,0,0,1.45,3.3,3,3,0,0,0,1.79,1.14,4.35,4.35,0,0,0,1,.11L576,141.12l-2.44-22a4.38,4.38,0,0,0-2.84-2.19,4.93,4.93,0,0,0-1-.13l-45.71,0,42.22-42.35a8.88,8.88,0,0,0,2.28-7.56l-2.21-20a8.71,8.71,0,0,0-1.85-4.76,5.08,5.08,0,0,0-2.63-1.74,4.59,4.59,0,0,0-.83-.1L491,38.88A3.62,3.62,0,0,0,491,40.17Zm37,91.41a9.77,9.77,0,1,1-8.26-11.08A9.78,9.78,0,0,1,528,131.58Z"/><path class="cls-3" d="M372,56l1.56,14.16V56.84A4,4,0,0,0,372.44,54a3,3,0,0,0-.32-.3A6.07,6.07,0,0,0,372,56Z"/><path class="cls-3" d="M402.45,155.9a8.05,8.05,0,0,1-4.56-2.86,11.19,11.19,0,0,1-2.52-5.89l-2.15-19.4a14.16,14.16,0,0,1,.48-5.74,8.23,8.23,0,0,1,2.32-4l39.85-38.52-40.66-.68a9.15,9.15,0,0,1-2-.23,8,8,0,0,1-4.43-2.75A10.85,10.85,0,0,1,386.27,70l-2-18.15a9.91,9.91,0,0,1,0-2l-7.52-.15a3.35,3.35,0,0,0-1.32.24c.23.21.46.43.68.66a8.93,8.93,0,0,1,2.42,6.25V80.39a3.66,3.66,0,0,0,.5.16,6.61,6.61,0,0,0,1.44.17l46.69.78-44.25,42.78a5.83,5.83,0,0,0-1.61,2.84,11.25,11.25,0,0,0-.37,4.71l2.14,19.4a8.68,8.68,0,0,0,2,4.6,5.55,5.55,0,0,0,3.17,2,7.16,7.16,0,0,0,1.5.18L473,159.37a3.47,3.47,0,0,0,3.63-2l-72.19-1.18A10,10,0,0,1,402.45,155.9Z"/><path class="cls-3" d="M389.23,51.33l2,18.15a5.83,5.83,0,0,0,1.41,3.19,3,3,0,0,0,1.73,1.09,3.65,3.65,0,0,0,.9.1l52.75.88-48.77,47.13a3.69,3.69,0,0,0-.79,1.65,8.92,8.92,0,0,0-.28,3.69l2.14,19.39a6.34,6.34,0,0,0,1.45,3.3,3.12,3.12,0,0,0,1.8,1.13,5,5,0,0,0,1,.12l71.62,1.17-2.44-22.13A4.46,4.46,0,0,0,470.9,128a4.84,4.84,0,0,0-1-.12l-43.87,0a12.25,12.25,0,0,1-10.43,18.7,11.81,11.81,0,0,1-1.77-.13,12.27,12.27,0,1,1,11.44-19.66l41.14-41.26A8.92,8.92,0,0,0,468.66,78l-2.22-20a8.5,8.5,0,0,0-1.85-4.76A4.89,4.89,0,0,0,462,51.49a3.85,3.85,0,0,0-.83-.1l-71.81-1.45A3.68,3.68,0,0,0,389.23,51.33Z"/><path class="cls-4" d="M485.12,126.08a1.91,1.91,0,0,1,1.26,1l4.29-2.57a6.91,6.91,0,0,0-4.41-3.34,7.4,7.4,0,0,0-1.61-.19H480.8L445,121l38-38.11a11.33,11.33,0,0,0,3-9.57l-.4-3.65-1.81-16.35a11.08,11.08,0,0,0-2.43-6.11,7.36,7.36,0,0,0-4-2.55,6.74,6.74,0,0,0-1.35-.17l-4.18-.08-80.21-1.62a7,7,0,0,0-5.33,2.63,7.82,7.82,0,0,0-2,4.38,9.91,9.91,0,0,0,0,2l2,18.15a10.85,10.85,0,0,0,2.54,5.85,8,8,0,0,0,4.43,2.75,9.15,9.15,0,0,0,2,.23l40.66.68L396,118.06a8.23,8.23,0,0,0-2.32,4,14.16,14.16,0,0,0-.48,5.74l2.15,19.4a11.19,11.19,0,0,0,2.52,5.89,8.05,8.05,0,0,0,4.56,2.86,10,10,0,0,0,2,.25l72.19,1.18,11.11.18H488a5.82,5.82,0,0,0,5.88-3.78l-4.66-1.8c-.11.29-.21.6-1.31.58l-11.68-.19-71.62-1.17a5,5,0,0,1-1-.12,3.12,3.12,0,0,1-1.8-1.13,6.34,6.34,0,0,1-1.45-3.3l-2.14-19.39a8.92,8.92,0,0,1,.28-3.69,3.69,3.69,0,0,1,.79-1.65L448,74.74l-52.75-.88a3.65,3.65,0,0,1-.9-.1,3,3,0,0,1-1.73-1.09,5.83,5.83,0,0,1-1.41-3.19l-2-18.15a3.68,3.68,0,0,1,.09-1.39A2.89,2.89,0,0,1,390,48.8a2.54,2.54,0,0,1,1.51-1h0l80.84,1.63,3.55.07a1.06,1.06,0,0,1,.31,0,2.5,2.5,0,0,1,1.29.92,6.24,6.24,0,0,1,1.27,3.41l1.74,15.73.47,4.29a6.48,6.48,0,0,1-1.56,5.51l-46.48,46.62,48.45,0h3.25A2,2,0,0,1,485.12,126.08Z"/><path class="cls-7" d="M416.61,127.14a7.42,7.42,0,0,0-1.05-.08,7.3,7.3,0,1,0,1.05.08Z"/><path d="M417.33,122.19a12.27,12.27,0,1,0-3.53,24.28,11.81,11.81,0,0,0,1.77.13A12.25,12.25,0,0,0,426,127.9a11.79,11.79,0,0,0-.76-1.09A12.28,12.28,0,0,0,417.33,122.19Zm-2.81,19.34a7.27,7.27,0,0,1,1-14.47,7.42,7.42,0,0,1,1.05.08,7.27,7.27,0,1,1-2.09,14.39Z"/><path class="cls-4" d="M590.92,140.76c-.11.3-.22.61-1.31.59L576,141.12,506.31,140a4.35,4.35,0,0,1-1-.11,3,3,0,0,1-1.79-1.14,6.15,6.15,0,0,1-1.45-3.3L499.94,116a9,9,0,0,1,.27-3.69,4,4,0,0,1,.79-1.65l48.77-47.12L497,62.7a4.28,4.28,0,0,1-.9-.1,3.09,3.09,0,0,1-1.73-1.09A5.86,5.86,0,0,1,493,58.32l-2-18.15a3.62,3.62,0,0,1,.06-1.29,3,3,0,0,1,.66-1.24A10.14,10.14,0,0,1,493.76,36l.43-.3,82,1.65a3,3,0,0,0,1.76,1.06,2.62,2.62,0,0,1,1.29.92,6.23,6.23,0,0,1,1.27,3.42l2.22,20a6.44,6.44,0,0,1-1.57,5.51l-46.48,46.63,51.7,0a2.12,2.12,0,0,1,.52.06,1.94,1.94,0,0,1,1.26,1l4.29-2.56a7,7,0,0,0-4.42-3.34,7.4,7.4,0,0,0-1.61-.19l-39.69,0,38-38.12a11.36,11.36,0,0,0,3-9.56l-2.22-20a11.08,11.08,0,0,0-2.43-6.1,7.86,7.86,0,0,0-2.83-2.18L580,32.42l-87.36-1.76-.68.5c-.34.25-.67.47-1,.69a15.07,15.07,0,0,0-3,2.45,7.83,7.83,0,0,0-2,4.48,8.9,8.9,0,0,0,0,1.93l2,18.16a10.89,10.89,0,0,0,2.54,5.85A8.08,8.08,0,0,0,495,67.47a9.73,9.73,0,0,0,2,.23l40.66.67L497.76,106.9a8.25,8.25,0,0,0-2.32,3.95,14,14,0,0,0-.47,5.74l2.14,19.4a11.17,11.17,0,0,0,2.53,5.88,8,8,0,0,0,4.55,2.87,9.48,9.48,0,0,0,2,.24l70.34,1.15,13,.21h.18a5.85,5.85,0,0,0,5.89-3.78Z"/><path class="cls-7" d="M508.64,128.76a9.77,9.77,0,1,0,11.08-8.26A9.77,9.77,0,0,0,508.64,128.76Z"/><path class="cls-4" d="M342.2,42h37.59a5.71,5.71,0,0,0,5.71-5.7V5.7A5.71,5.71,0,0,0,379.79,0H342.2a5.71,5.71,0,0,0-5.7,5.7V36.3A5.71,5.71,0,0,0,342.2,42Zm-.7-36.3a.7.7,0,0,1,.7-.7h37.59a.7.7,0,0,1,.71.7V36.3a.7.7,0,0,1-.71.7H342.2a.7.7,0,0,1-.7-.7Z"/><path d="M376.11,50.59c-.22-.23-.45-.45-.68-.66a8.07,8.07,0,0,0-5.42-2H350.84a8.27,8.27,0,0,0-6.35,2.73,9.07,9.07,0,0,0-2.31,6.21v85.35c0,.2,0,.39,0,.58a8.72,8.72,0,0,0,2.35,5.84,8.34,8.34,0,0,0,6.28,2.52H370a8.25,8.25,0,0,0,6-2.48,8.81,8.81,0,0,0,2.48-6.46V56.84A8.93,8.93,0,0,0,376.11,50.59Zm-3.6,94.52a3.3,3.3,0,0,1-2.5,1H350.84a3.37,3.37,0,0,1-2.67-1,3.77,3.77,0,0,1-.95-2.38c0-.19,0-.37,0-.58V56.84A4.13,4.13,0,0,1,348.23,54a3.23,3.23,0,0,1,2.61-1.05H370a3,3,0,0,1,2.11.79,3,3,0,0,1,.32.3,4,4,0,0,1,1.09,2.85v85.35A3.89,3.89,0,0,1,372.51,145.11Z"/></g></g></svg>