<svg xmlns="http://www.w3.org/2000/svg" viewBox="0 0 240 113"><defs><style>.cls-1{fill:#cef;}.cls-2{fill:#0077b3;}</style></defs><title>Asset 6</title><g id="Layer_2" data-name="Layer 2"><g id="Layer_1-2" data-name="Layer 1"><path class="cls-1" d="M79.16,34.7H74v8.73h5a5.27,5.27,0,0,0,1.53-2,5.62,5.62,0,0,0,.72-2.68,5.24,5.24,0,0,0-.57-2.45A4.07,4.07,0,0,0,79.16,34.7Z"/><path class="cls-1" d="M80.84,25.34a5,5,0,0,0-2-4.18H74v8.11h4.75A4.3,4.3,0,0,0,80.84,25.34Z"/><path class="cls-1" d="M0,0V113H240V0ZM32,49l-.91-18.34h-.24L27.42,44.2H23.48L20,30.66h-.24L18.87,49H12.58l2.16-33.6h6l2.07,7.73,2.54,10.51h.19l2.55-10.51,2.06-7.73h6L38.31,49Zm31-13.78c0,1.64-.05,2.92-.14,3.84a21.57,21.57,0,0,1-.58,3.32A12.63,12.63,0,0,1,57.83,49H47.17a12.16,12.16,0,0,1-4.51-6.62,30.52,30.52,0,0,1-.72-7.16V15.4h6.58V37.62A10.86,10.86,0,0,0,49,41.13a8.07,8.07,0,0,0,1.53,2.3h4A7.1,7.1,0,0,0,56,41.13a9.89,9.89,0,0,0,.48-3.51V15.4h6.58ZM81.89,49H67.44V15.4H81.12a10,10,0,0,1,4.18,3,7.83,7.83,0,0,1,1.82,5.24q0,5.41-3.55,7.58v.19A8.16,8.16,0,0,1,88,39.11Q88,45.11,81.89,49Zm16.18,0H91.49V15.4h6.58Zm21.86,0H101.54V43.53l11.33-22.37H101.54V15.4h18.34V21L108.5,43.43h11.43Zm20.72,0H122.26V43.53l11.33-22.37H122.26V15.4H140.6V21L129.22,43.43h11.43Z"/><polygon class="cls-2" points="119.88 21.02 119.88 15.4 101.54 15.4 101.54 21.16 112.87 21.16 101.54 43.53 101.54 49 119.93 49 119.93 43.43 108.5 43.43 119.88 21.02"/><rect class="cls-2" x="91.49" y="15.4" width="6.58" height="33.6"/><polygon class="cls-2" points="140.6 21.02 140.6 15.4 122.26 15.4 122.26 21.16 133.59 21.16 122.26 43.53 122.26 49 140.65 49 140.65 43.43 129.22 43.43 140.6 21.02"/><path class="cls-2" d="M83.57,31.43v-.19q3.56-2.16,3.55-7.58a7.83,7.83,0,0,0-1.82-5.24,10,10,0,0,0-4.18-3H67.44V49H81.89Q88,45.11,88,39.11A8.16,8.16,0,0,0,83.57,31.43ZM74,21.16h4.9a5,5,0,0,1,2,4.18,4.3,4.3,0,0,1-2.12,3.93H74Zm6.48,20.3a5.27,5.27,0,0,1-1.53,2H74V34.7h5.19a4.07,4.07,0,0,1,1.44,1.63,5.24,5.24,0,0,1,.57,2.45A5.62,5.62,0,0,1,80.45,41.46Z"/><path class="cls-2" d="M56.48,37.62A9.89,9.89,0,0,1,56,41.13a7.1,7.1,0,0,1-1.48,2.3h-4A8.07,8.07,0,0,1,49,41.13a10.86,10.86,0,0,1-.43-3.51V15.4H41.94V35.22a30.52,30.52,0,0,0,.72,7.16A12.16,12.16,0,0,0,47.17,49H57.83a12.63,12.63,0,0,0,4.51-6.62,21.57,21.57,0,0,0,.58-3.32c.09-.92.14-2.2.14-3.84V15.4H56.48Z"/><polygon class="cls-2" points="30.15 15.4 28.09 23.13 25.54 33.64 25.35 33.64 22.81 23.13 20.74 15.4 14.74 15.4 12.58 49 18.87 49 19.78 30.66 20.02 30.66 23.48 44.2 27.42 44.2 30.87 30.66 31.11 30.66 32.02 49 38.31 49 36.15 15.4 30.15 15.4"/></g></g></svg>