<svg xmlns="http://www.w3.org/2000/svg" viewBox="0 0 165.74 82.53"><defs><style>.cls-1{fill:#0064ff;}.cls-2{fill:#fff;}</style></defs><title>Asset 3</title><g id="Layer_2" data-name="Layer 2"><g id="Layer_1-2" data-name="Layer 1"><path class="cls-1" d="M81.34,49.64a3.75,3.75,0,0,0,2,1.85,3.51,3.51,0,0,0,1.44.3,3,3,0,0,0,1.33-.3,3.77,3.77,0,0,0,1.07-.76,3.54,3.54,0,0,0,.69-1.09,3.14,3.14,0,0,0,.26-1.21,4,4,0,0,0-1-2.65,3,3,0,0,0-2.4-1.12,3.51,3.51,0,0,0-1.44.3,3.26,3.26,0,0,0-1.17.82A4.43,4.43,0,0,0,81.34,47a3.74,3.74,0,0,0-.29,1.44A2.86,2.86,0,0,0,81.34,49.64Z"/><path class="cls-1" d="M0,0V82.53H165.74V0ZM16.09,10H149.56a3.43,3.43,0,1,1,0,6.86H16.09a3.43,3.43,0,0,1,0-6.86ZM125.63,52a3.37,3.37,0,0,1,2.47,1,3.6,3.6,0,0,1,0,4.92,3.38,3.38,0,0,1-2.47,1H111.3a3.33,3.33,0,0,1-3.44-3.44,4.8,4.8,0,0,1,.89-2.59l8.27-8H111.3a3.11,3.11,0,0,1-1.38-.3,3.85,3.85,0,0,1-1.09-.79,3.47,3.47,0,0,1-.72-1.12,3.38,3.38,0,0,1-.25-1.27,3.94,3.94,0,0,1,.25-1.4,3.68,3.68,0,0,1,.72-1.19,3.73,3.73,0,0,1,1.09-.81,3.25,3.25,0,0,1,1.38-.29h14.33a3.25,3.25,0,0,1,1.38.29,3.73,3.73,0,0,1,1.09.81,3.68,3.68,0,0,1,.72,1.19,3.94,3.94,0,0,1,.25,1.4,3.16,3.16,0,0,1-.89,2.33L119.91,52ZM91.52,30.56a3.43,3.43,0,1,1,0-6.86h57.73a3.43,3.43,0,1,1,0,6.86Zm13.54,10.75V55.14a3.38,3.38,0,0,1-.3,1.42,3.84,3.84,0,0,1-2,2,3.38,3.38,0,0,1-1.42.3,2.8,2.8,0,0,1-1.25-.3,3.92,3.92,0,0,1-1.11-.8,4.27,4.27,0,0,1-.78-1.17,3.38,3.38,0,0,1-.3-1.42V41.31a3.38,3.38,0,0,1,.3-1.42A4.27,4.27,0,0,1,99,38.72a4,4,0,0,1,1.11-.81,2.93,2.93,0,0,1,1.25-.29,3.53,3.53,0,0,1,1.42.29,3.91,3.91,0,0,1,2,2A3.38,3.38,0,0,1,105.06,41.31ZM84.74,37.62a9.61,9.61,0,0,1,4,.84A10.91,10.91,0,0,1,92,40.78a10.58,10.58,0,0,1,2.27,3.43,10.7,10.7,0,0,1,.83,4.22,9.57,9.57,0,0,1-.83,4A10.62,10.62,0,0,1,92,55.73,10.76,10.76,0,0,1,88.7,58a9.76,9.76,0,0,1-4,.83A10.54,10.54,0,0,1,80.56,58a10.29,10.29,0,0,1-3.35-2.27A10.67,10.67,0,0,1,75,52.42a9.88,9.88,0,0,1-.81-4V27.05a3.22,3.22,0,0,1,1-2.39,3.3,3.3,0,0,1,2.44-1,3.41,3.41,0,0,1,2.5,1,3.2,3.2,0,0,1,1,2.39V38.42A8.21,8.21,0,0,1,84.74,37.62Zm-26.28,13a3.1,3.1,0,0,0,2.44,1.08,3.17,3.17,0,0,0,2.48-1.08,3.83,3.83,0,0,0,.95-2.61V41.26a3.25,3.25,0,0,1,.3-1.37,4,4,0,0,1,.81-1.17,3.91,3.91,0,0,1,1.16-.81A3.53,3.53,0,0,1,68,37.62a3,3,0,0,1,2.42,1.08,3.81,3.81,0,0,1,.93,2.56v7.05a10.21,10.21,0,0,1-.8,4,10.62,10.62,0,0,1-2.23,3.35A10.92,10.92,0,0,1,65,58a9.92,9.92,0,0,1-4.11.85,9.59,9.59,0,0,1-4-.85,10.84,10.84,0,0,1-3.31-2.31,11.14,11.14,0,0,1-2.27-3.44,10.38,10.38,0,0,1-.85-4.18V41.26a3.81,3.81,0,0,1,.93-2.56,3,3,0,0,1,2.42-1.08,3.53,3.53,0,0,1,1.42.29,4,4,0,0,1,1.17.81,3.75,3.75,0,0,1,.8,1.17,3.25,3.25,0,0,1,.3,1.37v6.79A3.79,3.79,0,0,0,58.46,50.66Zm-42.37-27H63.42a3.43,3.43,0,0,1,0,6.86H16.09a3.43,3.43,0,0,1,0-6.86ZM12.66,48.43v-7a3.92,3.92,0,0,1,.95-2.63,3.1,3.1,0,0,1,2.44-1.1,3,3,0,0,1,1.47.34,4.65,4.65,0,0,1,1,.76c.7-.28,1.42-.54,2.16-.76a8,8,0,0,1,2.38-.34,9.57,9.57,0,0,1,3.73.76,12.52,12.52,0,0,1,3.31,2,10.16,10.16,0,0,1,3.07-2,9.14,9.14,0,0,1,3.67-.76,10.34,10.34,0,0,1,4.2.85,11.28,11.28,0,0,1,3.42,2.27,10.58,10.58,0,0,1,2.31,3.33,9.63,9.63,0,0,1,.85,4v7.08a3.38,3.38,0,0,1-.3,1.42,3.71,3.71,0,0,1-.8,1.15,4.27,4.27,0,0,1-1.17.78,3.38,3.38,0,0,1-1.42.3,3.1,3.1,0,0,1-2.44-1.08,3.74,3.74,0,0,1-1-2.57V48.43a3.7,3.7,0,0,0-3.69-3.69,2.72,2.72,0,0,0-1.23.3,3.86,3.86,0,0,0-1.06.79A4,4,0,0,0,33.83,47a3.57,3.57,0,0,0-.3,1.44v6.75a3.78,3.78,0,0,1-1,2.57,3.12,3.12,0,0,1-2.44,1.08,3.35,3.35,0,0,1-1.42-.3,4,4,0,0,1-1.15-.78,3.83,3.83,0,0,1-.78-1.15,3.38,3.38,0,0,1-.3-1.42V48.43a3.78,3.78,0,0,0-1-2.6,3.06,3.06,0,0,0-2.43-1.09,3.15,3.15,0,0,0-2.49,1.09,3.82,3.82,0,0,0-.95,2.6v6.75a3.38,3.38,0,0,1-.3,1.42,3.69,3.69,0,0,1-1.93,1.93,3.3,3.3,0,0,1-1.38.3,3.12,3.12,0,0,1-2.44-1.08,3.78,3.78,0,0,1-.95-2.57Zm136.9,24.1H16.09a3.43,3.43,0,0,1,0-6.86H149.56a3.43,3.43,0,1,1,0,6.86ZM149.65,52a3.44,3.44,0,1,1,0,6.87H135.31a3.35,3.35,0,0,1-3.44-3.44,4.8,4.8,0,0,1,.89-2.59l8.27-8h-5.72a3.11,3.11,0,0,1-1.38-.3,3.67,3.67,0,0,1-1.08-.79,3.47,3.47,0,0,1-.72-1.12,3.39,3.39,0,0,1-.26-1.27,4,4,0,0,1,.26-1.4,3.68,3.68,0,0,1,.72-1.19,3.56,3.56,0,0,1,1.08-.81,3.25,3.25,0,0,1,1.38-.29h14.34a3.25,3.25,0,0,1,1.38.29,3.56,3.56,0,0,1,1.08.81,3.68,3.68,0,0,1,.72,1.19,3.94,3.94,0,0,1,.25,1.4,3.12,3.12,0,0,1-.89,2.33L143.92,52Z"/><path class="cls-2" d="M16.05,58.83a3.3,3.3,0,0,0,1.38-.3,3.69,3.69,0,0,0,1.93-1.93,3.38,3.38,0,0,0,.3-1.42V48.43a3.82,3.82,0,0,1,.95-2.6,3.15,3.15,0,0,1,2.49-1.09,3.06,3.06,0,0,1,2.43,1.09,3.78,3.78,0,0,1,1,2.6v6.75a3.38,3.38,0,0,0,.3,1.42,3.83,3.83,0,0,0,.78,1.15,4,4,0,0,0,1.15.78,3.35,3.35,0,0,0,1.42.3,3.12,3.12,0,0,0,2.44-1.08,3.78,3.78,0,0,0,1-2.57V48.43a3.57,3.57,0,0,1,.3-1.44,4,4,0,0,1,.76-1.16A3.86,3.86,0,0,1,35.65,45a2.72,2.72,0,0,1,1.23-.3,3.7,3.7,0,0,1,3.69,3.69v6.75a3.74,3.74,0,0,0,1,2.57A3.1,3.1,0,0,0,44,58.83a3.38,3.38,0,0,0,1.42-.3,4.27,4.27,0,0,0,1.17-.78,3.71,3.71,0,0,0,.8-1.15,3.38,3.38,0,0,0,.3-1.42V48.1a9.63,9.63,0,0,0-.85-4,10.58,10.58,0,0,0-2.31-3.33,11.28,11.28,0,0,0-3.42-2.27,10.34,10.34,0,0,0-4.2-.85,9.14,9.14,0,0,0-3.67.76,10.16,10.16,0,0,0-3.07,2,12.52,12.52,0,0,0-3.31-2,9.57,9.57,0,0,0-3.73-.76,8,8,0,0,0-2.38.34c-.74.22-1.46.48-2.16.76a4.65,4.65,0,0,0-1-.76,3,3,0,0,0-1.47-.34,3.1,3.1,0,0,0-2.44,1.1,3.92,3.92,0,0,0-.95,2.63V55.18a3.78,3.78,0,0,0,.95,2.57A3.12,3.12,0,0,0,16.05,58.83Z"/><path class="cls-2" d="M57.2,39.89a3.75,3.75,0,0,0-.8-1.17,4,4,0,0,0-1.17-.81,3.53,3.53,0,0,0-1.42-.29,3,3,0,0,0-2.42,1.08,3.81,3.81,0,0,0-.93,2.56v6.79a10.38,10.38,0,0,0,.85,4.18,11.14,11.14,0,0,0,2.27,3.44A10.84,10.84,0,0,0,56.89,58a9.59,9.59,0,0,0,4,.85A9.92,9.92,0,0,0,65,58a10.92,10.92,0,0,0,3.33-2.29,10.62,10.62,0,0,0,2.23-3.35,10.21,10.21,0,0,0,.8-4V41.26a3.81,3.81,0,0,0-.93-2.56A3,3,0,0,0,68,37.62a3.53,3.53,0,0,0-1.42.29,3.91,3.91,0,0,0-1.16.81,4,4,0,0,0-.81,1.17,3.25,3.25,0,0,0-.3,1.37v6.79a3.83,3.83,0,0,1-.95,2.61,3.17,3.17,0,0,1-2.48,1.08,3.1,3.1,0,0,1-2.44-1.08,3.79,3.79,0,0,1-1-2.61V41.26A3.25,3.25,0,0,0,57.2,39.89Z"/><path class="cls-2" d="M80.07,24.66a3.41,3.41,0,0,0-2.5-1,3.3,3.3,0,0,0-2.44,1,3.22,3.22,0,0,0-1,2.39V48.43a9.88,9.88,0,0,0,.81,4,10.67,10.67,0,0,0,2.23,3.31A10.29,10.29,0,0,0,80.56,58a10.54,10.54,0,0,0,4.18.83,9.76,9.76,0,0,0,4-.83A10.76,10.76,0,0,0,92,55.73a10.62,10.62,0,0,0,2.27-3.31,9.57,9.57,0,0,0,.83-4,10.7,10.7,0,0,0-.83-4.22A10.58,10.58,0,0,0,92,40.78a10.91,10.91,0,0,0-3.33-2.32,9.61,9.61,0,0,0-4-.84,8.21,8.21,0,0,0-3.69.8V27.05A3.2,3.2,0,0,0,80.07,24.66ZM81.34,47a4.43,4.43,0,0,1,.79-1.21A3.26,3.26,0,0,1,83.3,45a3.51,3.51,0,0,1,1.44-.3,3,3,0,0,1,2.4,1.12,4,4,0,0,1,1,2.65,3.14,3.14,0,0,1-.26,1.21,3.54,3.54,0,0,1-.69,1.09,3.77,3.77,0,0,1-1.07.76,3,3,0,0,1-1.33.3,3.51,3.51,0,0,1-1.44-.3,3.75,3.75,0,0,1-2-1.85,2.86,2.86,0,0,1-.29-1.21A3.74,3.74,0,0,1,81.34,47Z"/><path class="cls-2" d="M102.79,37.91a3.53,3.53,0,0,0-1.42-.29,2.93,2.93,0,0,0-1.25.29,4,4,0,0,0-1.11.81,4.27,4.27,0,0,0-.78,1.17,3.38,3.38,0,0,0-.3,1.42V55.14a3.38,3.38,0,0,0,.3,1.42A4.27,4.27,0,0,0,99,57.73a3.92,3.92,0,0,0,1.11.8,2.8,2.8,0,0,0,1.25.3,3.38,3.38,0,0,0,1.42-.3,3.84,3.84,0,0,0,2-2,3.38,3.38,0,0,0,.3-1.42V41.31a3.38,3.38,0,0,0-.3-1.42,3.91,3.91,0,0,0-2-2Z"/><path class="cls-2" d="M129.07,41.31a3.94,3.94,0,0,0-.25-1.4,3.68,3.68,0,0,0-.72-1.19,3.73,3.73,0,0,0-1.09-.81,3.25,3.25,0,0,0-1.38-.29H111.3a3.25,3.25,0,0,0-1.38.29,3.73,3.73,0,0,0-1.09.81,3.68,3.68,0,0,0-.72,1.19,3.94,3.94,0,0,0-.25,1.4,3.38,3.38,0,0,0,.25,1.27,3.47,3.47,0,0,0,.72,1.12,3.85,3.85,0,0,0,1.09.79,3.11,3.11,0,0,0,1.38.3H117l-8.27,8a4.8,4.8,0,0,0-.89,2.59,3.33,3.33,0,0,0,3.44,3.44h14.33a3.38,3.38,0,0,0,2.47-1,3.6,3.6,0,0,0,0-4.92,3.37,3.37,0,0,0-2.47-1h-5.72l8.27-8.32A3.16,3.16,0,0,0,129.07,41.31Z"/><path class="cls-2" d="M153.08,41.31a3.94,3.94,0,0,0-.25-1.4,3.68,3.68,0,0,0-.72-1.19,3.56,3.56,0,0,0-1.08-.81,3.25,3.25,0,0,0-1.38-.29H135.31a3.25,3.25,0,0,0-1.38.29,3.56,3.56,0,0,0-1.08.81,3.68,3.68,0,0,0-.72,1.19,4,4,0,0,0-.26,1.4,3.39,3.39,0,0,0,.26,1.27,3.47,3.47,0,0,0,.72,1.12,3.67,3.67,0,0,0,1.08.79,3.11,3.11,0,0,0,1.38.3H141l-8.27,8a4.8,4.8,0,0,0-.89,2.59,3.35,3.35,0,0,0,3.44,3.44h14.34a3.44,3.44,0,1,0,0-6.87h-5.73l8.27-8.32A3.12,3.12,0,0,0,153.08,41.31Z"/><path class="cls-2" d="M152.68,27.13a3.44,3.44,0,0,0-3.43-3.43H91.52a3.43,3.43,0,1,0,0,6.86h57.73A3.43,3.43,0,0,0,152.68,27.13Z"/><path class="cls-2" d="M16.09,30.56H63.42a3.43,3.43,0,0,0,0-6.86H16.09a3.43,3.43,0,0,0,0,6.86Z"/><path class="cls-2" d="M16.09,16.86H149.56a3.43,3.43,0,1,0,0-6.86H16.09a3.43,3.43,0,0,0,0,6.86Z"/><path class="cls-2" d="M149.56,65.67H16.09a3.43,3.43,0,0,0,0,6.86H149.56a3.43,3.43,0,1,0,0-6.86Z"/></g></g></svg>