<svg xmlns="http://www.w3.org/2000/svg" viewBox="0 0 477.43 121.68"><defs><style>.cls-1{fill:#00adee;}.cls-2{fill:#231f20;}</style></defs><title>Asset 10</title><g id="Layer_2" data-name="Layer 2"><g id="Layer_1-2" data-name="Layer 1"><path class="cls-1" d="M108,59.6a37,37,0,0,0-11.09-7.37,33.9,33.9,0,0,0-13.6-2.74,29.49,29.49,0,0,0-11.8,2.45,33.25,33.25,0,0,0-9.94,6.58l-1,1-1-.89A40.38,40.38,0,0,0,48.79,52a31.08,31.08,0,0,0-12-2.46,25.79,25.79,0,0,0-7.59,1.08c-2.43.75-4.85,1.6-7.19,2.54l-.92.36-.7-.69a13.85,13.85,0,0,0-3.17-2.33,8.66,8.66,0,0,0-4.22-1A8.9,8.9,0,0,0,5.86,52.7,11.59,11.59,0,0,0,3,60.6v46.58a11.1,11.1,0,0,0,2.85,7.68A9,9,0,0,0,13,118a9.72,9.72,0,0,0,4-.87,11.44,11.44,0,0,0,3.42-2.35,11.32,11.32,0,0,0,2.35-3.42,10.08,10.08,0,0,0,.87-4.19V84.39a14.34,14.34,0,0,1,3.6-9.8,12.13,12.13,0,0,1,9.51-4.17,12,12,0,0,1,9.37,4.17,14.34,14.34,0,0,1,3.6,9.8v22.79a10.08,10.08,0,0,0,.87,4.19,11.29,11.29,0,0,0,2.34,3.42,11.49,11.49,0,0,0,3.43,2.35,10,10,0,0,0,4.18.87,9,9,0,0,0,7.12-3.15,11.1,11.1,0,0,0,2.85-7.68V84.39a13.53,13.53,0,0,1,1.13-5.47,14.85,14.85,0,0,1,2.87-4.38,14.4,14.4,0,0,1,4-3,10.58,10.58,0,0,1,4.82-1.17,14,14,0,0,1,14,14v22.79a11.15,11.15,0,0,0,2.85,7.68,9,9,0,0,0,7.12,3.15,10.08,10.08,0,0,0,4.19-.87,12.45,12.45,0,0,0,3.52-2.37,10.94,10.94,0,0,0,2.39-3.4,10.08,10.08,0,0,0,.87-4.19V83.25a31.46,31.46,0,0,0-2.74-12.87A34.41,34.41,0,0,0,108,59.6Z"/><path class="cls-2" d="M110.12,57.45a40.06,40.06,0,0,0-12-8,36.78,36.78,0,0,0-14.79-3,32.48,32.48,0,0,0-13,2.7,36.4,36.4,0,0,0-9.85,6.26A44,44,0,0,0,50,49.18a34,34,0,0,0-13.19-2.69,29,29,0,0,0-8.47,1.21c-2.2.68-4.4,1.44-6.54,2.27a18.33,18.33,0,0,0-3.11-2.15A11.7,11.7,0,0,0,13,46.49a11.92,11.92,0,0,0-9.38,4.24A14.69,14.69,0,0,0,0,60.6v46.58a14.19,14.19,0,0,0,3.6,9.67A12,12,0,0,0,13,121a12.77,12.77,0,0,0,5.27-1.13,14.19,14.19,0,0,0,7.27-7.28,13,13,0,0,0,1.14-5.42V84.39a11.31,11.31,0,0,1,2.85-7.82,9.14,9.14,0,0,1,7.26-3.15,9,9,0,0,1,7.12,3.15,11.36,11.36,0,0,1,2.85,7.82v22.79a13.09,13.09,0,0,0,1.13,5.42,14.29,14.29,0,0,0,7.27,7.28A13.16,13.16,0,0,0,60.55,121a12,12,0,0,0,9.37-4.16,14.19,14.19,0,0,0,3.6-9.67V84.39a10.63,10.63,0,0,1,.88-4.27,11.67,11.67,0,0,1,2.29-3.5,11.51,11.51,0,0,1,3.17-2.35,7.73,7.73,0,0,1,3.48-.85,11,11,0,0,1,11,11v22.79a14.19,14.19,0,0,0,3.6,9.67,12,12,0,0,0,9.37,4.16,13.12,13.12,0,0,0,5.42-1.13,15.56,15.56,0,0,0,4.36-2.94,13.85,13.85,0,0,0,3-4.34,13,13,0,0,0,1.14-5.42V83.25a34.5,34.5,0,0,0-3-14.09A37.41,37.41,0,0,0,110.12,57.45Zm8.13,49.73a10.08,10.08,0,0,1-.87,4.19,10.94,10.94,0,0,1-2.39,3.4,12.45,12.45,0,0,1-3.52,2.37,10.08,10.08,0,0,1-4.19.87,9,9,0,0,1-7.12-3.15,11.15,11.15,0,0,1-2.85-7.68V84.39a14,14,0,0,0-14-14,10.58,10.58,0,0,0-4.82,1.17,14.4,14.4,0,0,0-4,3,14.85,14.85,0,0,0-2.87,4.38,13.53,13.53,0,0,0-1.13,5.47v22.79a11.1,11.1,0,0,1-2.85,7.68A9,9,0,0,1,60.55,118a10,10,0,0,1-4.18-.87,11.49,11.49,0,0,1-3.43-2.35,11.29,11.29,0,0,1-2.34-3.42,10.08,10.08,0,0,1-.87-4.19V84.39a14.34,14.34,0,0,0-3.6-9.8,12,12,0,0,0-9.37-4.17,12.13,12.13,0,0,0-9.51,4.17,14.34,14.34,0,0,0-3.6,9.8v22.79a10.08,10.08,0,0,1-.87,4.19,11.32,11.32,0,0,1-2.35,3.42A11.44,11.44,0,0,1,17,117.14a9.72,9.72,0,0,1-4,.87,9,9,0,0,1-7.12-3.15A11.1,11.1,0,0,1,3,107.18V60.6a11.59,11.59,0,0,1,2.86-7.9A8.9,8.9,0,0,1,13,49.49a8.66,8.66,0,0,1,4.22,1,13.85,13.85,0,0,1,3.17,2.33l.7.69.92-.36c2.34-.94,4.76-1.79,7.19-2.54a25.79,25.79,0,0,1,7.59-1.08,31.08,31.08,0,0,1,12,2.46,40.38,40.38,0,0,1,10.79,6.64l1,.89,1-1a33.25,33.25,0,0,1,9.94-6.58,29.49,29.49,0,0,1,11.8-2.45,33.9,33.9,0,0,1,13.6,2.74A37,37,0,0,1,108,59.6a34.41,34.41,0,0,1,7.48,10.78,31.46,31.46,0,0,1,2.74,12.87Z"/><path class="cls-1" d="M188.55,49.34a10.27,10.27,0,0,0-4.19.87,11.88,11.88,0,0,0-3.49,2.42,11.73,11.73,0,0,0-2.42,3.5,9.72,9.72,0,0,0-.87,4V83.1a14.35,14.35,0,0,1-3.6,9.81,12.16,12.16,0,0,1-9.51,4.16,12,12,0,0,1-9.37-4.16,14.39,14.39,0,0,1-3.6-9.81V60.17a9.72,9.72,0,0,0-.87-4,11.76,11.76,0,0,0-2.41-3.5,12.11,12.11,0,0,0-3.5-2.42,10.27,10.27,0,0,0-4.19-.87,8.78,8.78,0,0,0-7,3.14,11.26,11.26,0,0,0-2.79,7.69V83.1a34,34,0,0,0,2.74,13.53,36.82,36.82,0,0,0,7.37,11.16,34.81,34.81,0,0,0,10.72,7.49A31.34,31.34,0,0,0,164.47,118a32.39,32.39,0,0,0,13.29-2.74,34.38,34.38,0,0,0,18-18.27,33.36,33.36,0,0,0,2.6-13V60.17a11.28,11.28,0,0,0-2.79-7.69A8.78,8.78,0,0,0,188.55,49.34Z"/><path class="cls-2" d="M188.55,46.34a13.16,13.16,0,0,0-5.42,1.14,14.75,14.75,0,0,0-4.38,3,14.51,14.51,0,0,0-3,4.38,12.67,12.67,0,0,0-1.14,5.28V83.1a11.32,11.32,0,0,1-2.85,7.83,9.16,9.16,0,0,1-7.26,3.14,9,9,0,0,1-7.12-3.14,11.38,11.38,0,0,1-2.85-7.83V60.17a12.85,12.85,0,0,0-1.13-5.28,15.13,15.13,0,0,0-3-4.38,14.79,14.79,0,0,0-4.39-3,13.16,13.16,0,0,0-5.42-1.14,11.77,11.77,0,0,0-9.3,4.18,14.32,14.32,0,0,0-3.52,9.65V83.1a36.82,36.82,0,0,0,3,14.71,39.58,39.58,0,0,0,8,12.07A37.57,37.57,0,0,0,150.31,118a34.24,34.24,0,0,0,14.16,3A35.42,35.42,0,0,0,179,118,37.86,37.86,0,0,0,190.69,110a37.45,37.45,0,0,0,7.84-11.8A36.22,36.22,0,0,0,201.37,84V60.17a14.33,14.33,0,0,0-3.52-9.65A11.77,11.77,0,0,0,188.55,46.34ZM198.37,84a33.36,33.36,0,0,1-2.6,13,34.38,34.38,0,0,1-18,18.27A32.39,32.39,0,0,1,164.47,118a31.34,31.34,0,0,1-12.93-2.73,34.81,34.81,0,0,1-10.72-7.49,36.82,36.82,0,0,1-7.37-11.16,34,34,0,0,1-2.74-13.53V60.17a11.26,11.26,0,0,1,2.79-7.69,8.78,8.78,0,0,1,7-3.14,10.27,10.27,0,0,1,4.19.87,12.11,12.11,0,0,1,3.5,2.42,11.76,11.76,0,0,1,2.41,3.5,9.72,9.72,0,0,1,.87,4V83.1a14.39,14.39,0,0,0,3.6,9.81,12,12,0,0,0,9.37,4.16A12.16,12.16,0,0,0,174,92.91a14.35,14.35,0,0,0,3.6-9.81V60.17a9.72,9.72,0,0,1,.87-4,11.73,11.73,0,0,1,2.42-3.5,11.88,11.88,0,0,1,3.49-2.42,10.27,10.27,0,0,1,4.19-.87,8.78,8.78,0,0,1,7,3.14,11.28,11.28,0,0,1,2.79,7.69Z"/><path class="cls-1" d="M308.89,52.63a12,12,0,0,0-3.5-2.42,10.22,10.22,0,0,0-4.18-.87,8.19,8.19,0,0,0-3.58.86,11.35,11.35,0,0,0-3.29,2.41A12.32,12.32,0,0,0,292,56.13a9.88,9.88,0,0,0-.87,4.18V107a10,10,0,0,0,.87,4.18,12.35,12.35,0,0,0,2.36,3.52,11.51,11.51,0,0,0,3.3,2.42,8.28,8.28,0,0,0,3.58.85,10.06,10.06,0,0,0,4.18-.87,11.85,11.85,0,0,0,5.92-5.92,10,10,0,0,0,.87-4.18V60.31a10.06,10.06,0,0,0-.87-4.18A12,12,0,0,0,308.89,52.63Z"/><path class="cls-2" d="M311,50.51a14.67,14.67,0,0,0-4.39-3,13.12,13.12,0,0,0-5.41-1.14,11.07,11.07,0,0,0-4.88,1.16,14.16,14.16,0,0,0-4.16,3,15.71,15.71,0,0,0-2.94,4.36,13.16,13.16,0,0,0-1.13,5.42V107a13.12,13.12,0,0,0,1.13,5.42,15.56,15.56,0,0,0,2.94,4.36,14.46,14.46,0,0,0,4.16,3,11.19,11.19,0,0,0,4.88,1.15,13.16,13.16,0,0,0,5.42-1.13,14.93,14.93,0,0,0,7.41-7.42,13,13,0,0,0,1.14-5.42V60.31A13,13,0,0,0,314,54.89,14.75,14.75,0,0,0,311,50.51ZM312.18,107a10,10,0,0,1-.87,4.18,11.85,11.85,0,0,1-5.92,5.92,10.06,10.06,0,0,1-4.18.87,8.28,8.28,0,0,1-3.58-.85,11.51,11.51,0,0,1-3.3-2.42,12.35,12.35,0,0,1-2.36-3.52,10,10,0,0,1-.87-4.18V60.31a9.88,9.88,0,0,1,.87-4.18,12.32,12.32,0,0,1,2.37-3.52,11.35,11.35,0,0,1,3.29-2.41,8.19,8.19,0,0,1,3.58-.86,10.22,10.22,0,0,1,4.18.87,11.85,11.85,0,0,1,5.92,5.92,10.06,10.06,0,0,1,.87,4.18Z"/><path class="cls-1" d="M392.54,56.11a10.71,10.71,0,0,0-2.14-3.53,10.49,10.49,0,0,0-3.2-2.38,9.15,9.15,0,0,0-4-.86H334.75a9.12,9.12,0,0,0-4,.86,10.37,10.37,0,0,0-3.2,2.38,10.88,10.88,0,0,0-2.14,3.53,11.86,11.86,0,0,0-.76,4.2,10.42,10.42,0,0,0,2.88,7.06,10.83,10.83,0,0,0,3.22,2.34,9.08,9.08,0,0,0,4,.86H357.8l-30.49,29.55a14.57,14.57,0,0,0-2.67,7.78A9.77,9.77,0,0,0,334.75,118h48.44a10.11,10.11,0,1,0,0-20.22h-23l30.5-30.65a9.16,9.16,0,0,0,2.57-6.83A11.86,11.86,0,0,0,392.54,56.11Z"/><path class="cls-2" d="M396.3,60.31a15,15,0,0,0-.95-5.25,13.64,13.64,0,0,0-2.74-4.5,13.42,13.42,0,0,0-4.11-3.06,12,12,0,0,0-5.31-1.16H334.75a12,12,0,0,0-5.31,1.16,13.42,13.42,0,0,0-4.11,3.06,13.64,13.64,0,0,0-2.74,4.5,15,15,0,0,0-.95,5.25,13.06,13.06,0,0,0,1,4.86,13.37,13.37,0,0,0,2.75,4.28,14.14,14.14,0,0,0,4.09,3,12,12,0,0,0,5.31,1.16h15.64L325.1,98.08l-.21.25a17.62,17.62,0,0,0-3.25,9.57A12.77,12.77,0,0,0,334.75,121h48.44a13.11,13.11,0,1,0,0-26.22H367.45l25.4-25.53A12.16,12.16,0,0,0,396.3,60.31ZM360.23,97.79h23a10.11,10.11,0,1,1,0,20.22H334.75a9.77,9.77,0,0,1-10.11-10.11,14.57,14.57,0,0,1,2.67-7.78L357.8,70.57H334.75a9.08,9.08,0,0,1-4-.86,10.83,10.83,0,0,1-3.22-2.34,10.42,10.42,0,0,1-2.88-7.06,11.86,11.86,0,0,1,.76-4.2,10.88,10.88,0,0,1,2.14-3.53,10.37,10.37,0,0,1,3.2-2.38,9.12,9.12,0,0,1,4-.86h48.44a9.15,9.15,0,0,1,4,.86,10.49,10.49,0,0,1,3.2,2.38,10.71,10.71,0,0,1,2.14,3.53,11.86,11.86,0,0,1,.76,4.2,9.16,9.16,0,0,1-2.57,6.83Z"/><path class="cls-1" d="M471.57,100.65a9.72,9.72,0,0,0-7.25-2.86h-23l30.49-30.65a9.11,9.11,0,0,0,2.58-6.83,12.09,12.09,0,0,0-.76-4.2,11.05,11.05,0,0,0-2.14-3.53,10.53,10.53,0,0,0-3.21-2.38,9.07,9.07,0,0,0-4-.86H415.87a9.07,9.07,0,0,0-4,.86,10.53,10.53,0,0,0-3.21,2.38,10.85,10.85,0,0,0-2.13,3.53,11.87,11.87,0,0,0-.77,4.2,10.09,10.09,0,0,0,.76,3.75,10.25,10.25,0,0,0,2.12,3.31,11.09,11.09,0,0,0,3.22,2.34,9.15,9.15,0,0,0,4,.86h23.06l-30.49,29.55a14.5,14.5,0,0,0-2.68,7.78A9.78,9.78,0,0,0,415.87,118h48.45a10.26,10.26,0,0,0,7.25-17.36Z"/><path class="cls-2" d="M464.32,94.79H448.58L474,69.26a12.16,12.16,0,0,0,3.45-9,14.88,14.88,0,0,0-1-5.26,13.84,13.84,0,0,0-2.73-4.49,13.67,13.67,0,0,0-4.11-3.06,12.09,12.09,0,0,0-5.31-1.16H415.87a12.09,12.09,0,0,0-5.31,1.16,13.56,13.56,0,0,0-6.84,7.56,14.78,14.78,0,0,0-1,5.25,13.08,13.08,0,0,0,1,4.86,13.37,13.37,0,0,0,2.75,4.28,14.09,14.09,0,0,0,4.08,3,12,12,0,0,0,5.31,1.16h15.65L406.23,98.08l-.21.25a17.64,17.64,0,0,0-3.26,9.57A12.78,12.78,0,0,0,415.87,121h48.45a13.11,13.11,0,1,0,0-26.22Zm0,23.22H415.87a9.78,9.78,0,0,1-10.11-10.11,14.5,14.5,0,0,1,2.68-7.78l30.49-29.55H415.87a9.15,9.15,0,0,1-4-.86,11.09,11.09,0,0,1-3.22-2.34,10.25,10.25,0,0,1-2.12-3.31,10.09,10.09,0,0,1-.76-3.75,11.87,11.87,0,0,1,.77-4.2,10.85,10.85,0,0,1,2.13-3.53,10.53,10.53,0,0,1,3.21-2.38,9.07,9.07,0,0,1,4-.86h48.45a9.07,9.07,0,0,1,4,.86,10.53,10.53,0,0,1,3.21,2.38,11.05,11.05,0,0,1,2.14,3.53,12.09,12.09,0,0,1,.76,4.2,9.11,9.11,0,0,1-2.58,6.83L441.36,97.79h23a10.11,10.11,0,1,1,0,20.22Z"/><path class="cls-1" d="M268.3,108.66a35.44,35.44,0,0,0,7.36-10.73,31.52,31.52,0,0,0,2.67-12.87,35.18,35.18,0,0,0-10-24.82,35.73,35.73,0,0,0-10.79-7.49A31,31,0,0,0,244.71,50a26.17,26.17,0,0,0-11.8,2.57l-2.17,1.08V12.82a9.31,9.31,0,0,0-2.85-7A10.07,10.07,0,0,0,220.48,3a9.64,9.64,0,0,0-7.18,2.79,9.45,9.45,0,0,0-2.78,7V85.06a32.16,32.16,0,0,0,2.6,12.88,34.88,34.88,0,0,0,7.21,10.72A33.8,33.8,0,0,0,231.18,116a34.2,34.2,0,0,0,13.53,2.67,31.72,31.72,0,0,0,12.8-2.67A35.13,35.13,0,0,0,268.3,108.66Z"/><path class="cls-2" d="M270.43,58.14A38.61,38.61,0,0,0,258.73,50a34,34,0,0,0-14-3,30.16,30.16,0,0,0-11,1.93V12.82A12.36,12.36,0,0,0,230,3.65,13.11,13.11,0,0,0,220.48,0a12.65,12.65,0,0,0-9.3,3.66,12.49,12.49,0,0,0-3.66,9.16V85.06a35.37,35.37,0,0,0,2.84,14.07,37.9,37.9,0,0,0,7.84,11.64,36.87,36.87,0,0,0,26.51,10.91,34.61,34.61,0,0,0,14-2.92A38.27,38.27,0,0,0,278.4,99.14a34.48,34.48,0,0,0,2.93-14.08,38.24,38.24,0,0,0-10.9-26.92ZM231.18,116a33.8,33.8,0,0,1-10.85-7.35,34.88,34.88,0,0,1-7.21-10.72,32.16,32.16,0,0,1-2.6-12.88V12.82a9.45,9.45,0,0,1,2.78-7A9.64,9.64,0,0,1,220.48,3a10.07,10.07,0,0,1,7.41,2.8,9.31,9.31,0,0,1,2.85,7V53.66l2.17-1.08A26.17,26.17,0,0,1,244.71,50a31,31,0,0,1,12.79,2.74,35.73,35.73,0,0,1,10.79,7.49,35.18,35.18,0,0,1,10,24.82,31.52,31.52,0,0,1-2.67,12.87A35.28,35.28,0,0,1,257.51,116a31.72,31.72,0,0,1-12.8,2.67A34.2,34.2,0,0,1,231.18,116Z"/></g></g></svg>